<svg width="149" height="40" viewBox="0 0 149 40" fill="none" xmlns="http://www.w3.org/2000/svg">
<g clip-path="url(#clip0_1793_45700)">
<path d="M5.70645 18.3626C5.65262 18.2921 5.58152 18.2368 5.50004 18.2019C5.41856 18.1669 5.32945 18.1536 5.24131 18.1632C5.15318 18.1727 5.069 18.2049 4.99693 18.2565C4.92485 18.3081 4.86731 18.3775 4.82986 18.4578L0.388069 27.3386C0.347605 27.4196 0.3285 27.5095 0.332568 27.5999C0.336636 27.6903 0.363742 27.7782 0.411313 27.8551C0.458883 27.9321 0.525339 27.9956 0.604371 28.0397C0.683402 28.0838 0.772386 28.1069 0.862875 28.1069H7.04784C7.1469 28.1092 7.2445 28.0827 7.32878 28.0306C7.41307 27.9785 7.48041 27.9031 7.52265 27.8134C8.85682 25.0565 8.04826 20.8646 5.70645 18.3626Z" fill="url(#paint0_linear_1793_45700)"/>
<path d="M8.96336 10.2849C7.8566 11.9879 7.21162 13.9493 7.09172 15.9768C6.97182 18.0043 7.38113 20.0281 8.27948 21.8496L11.2613 27.8133C11.3054 27.9015 11.3732 27.9756 11.457 28.0275C11.5409 28.0793 11.6375 28.1068 11.7361 28.1068H17.92C18.0105 28.1068 18.0994 28.0836 18.1785 28.0395C18.2575 27.9955 18.324 27.9319 18.3715 27.855C18.4191 27.778 18.4462 27.6901 18.4503 27.5997C18.4543 27.5093 18.4352 27.4194 18.3948 27.3385C18.3948 27.3385 10.0754 10.6978 9.86633 10.2816C9.82499 10.1968 9.76061 10.1255 9.68057 10.0757C9.60053 10.0259 9.50807 9.99966 9.4138 10C9.31953 10.0004 9.22727 10.0273 9.1476 10.0777C9.06793 10.128 9.00408 10.1999 8.96336 10.2849Z" fill="#2684FF"/>
<path d="M81.4977 17.4033C81.4977 19.6024 82.5179 21.3484 86.5082 22.1192C88.8889 22.619 89.3875 23.0033 89.3875 23.7968C89.3875 24.5676 88.8877 25.0666 87.2109 25.0666C85.1843 25.0301 83.1982 24.4927 81.4297 23.5022V27.0841C82.6314 27.6736 84.2183 28.3311 87.1657 28.3311C91.3373 28.3311 92.9924 26.4707 92.9924 23.706L81.4977 17.4033ZM92.9924 23.706C92.9924 21.0988 91.6094 19.8743 87.7099 19.0357C85.5561 18.5595 85.0346 18.0836 85.0346 17.4033C85.0346 16.5426 85.8054 16.1791 87.2337 16.1791C88.9569 16.1791 90.6573 16.7006 92.2669 17.4261V14.0025C90.7235 13.3 89.0425 12.9514 87.347 12.9824C83.4927 12.9824 81.4977 14.66 81.4977 17.4033" fill="#0052CC"/>
<path d="M135.092 13.2109V28.1065H138.266V16.7478L139.604 19.763L144.093 28.1065H148.083V13.2109H144.909V22.8239L143.707 20.0351L140.102 13.2109H135.092Z" fill="#0052CC"/>
<path d="M114.903 13.2109H111.435V28.1065H114.903V13.2109Z" fill="#0052CC"/>
<path d="M107.433 23.706C107.433 21.0988 106.05 19.8743 102.15 19.0357C99.9965 18.5595 99.475 18.0836 99.475 17.4033C99.475 16.5426 100.246 16.1791 101.674 16.1791C103.397 16.1791 105.098 16.7006 106.707 17.4261V14.0025C105.164 13.3 103.483 12.9514 101.787 12.9824C97.9332 12.9824 95.9381 14.66 95.9381 17.4033C95.9381 19.6024 96.9583 21.3484 100.949 22.1192C103.329 22.619 103.828 23.0033 103.828 23.7968C103.828 24.5676 103.328 25.0666 101.651 25.0666C99.6247 25.0301 97.6386 24.4927 95.8701 23.5022V27.0841C97.0718 27.6736 98.6587 28.3311 101.606 28.3311C105.778 28.3311 107.433 26.4707 107.433 23.706Z" fill="#0052CC"/>
<path d="M54.5498 13.2109V28.1065H61.6797L62.8023 24.887H58.0412V13.2109H54.5498Z" fill="#0052CC"/>
<path d="M40.4639 13.2109V16.4302H44.3181V28.1065H47.8095V16.4302H51.9358V13.2109H40.4639Z" fill="#0052CC"/>
<path d="M35.4007 13.2109H30.8251L25.6309 28.1065H29.5976L30.3339 25.5978C32.1475 26.1303 34.0759 26.1303 35.8894 25.5978L36.6258 28.1065H40.5933L35.4007 13.2109ZM33.1128 22.9117C32.4666 22.9116 31.8238 22.8192 31.2039 22.6371L33.1128 16.1367L35.0217 22.6393C34.4017 22.8206 33.7588 22.9124 33.1128 22.9117Z" fill="#0052CC"/>
<path d="M73.9718 13.2109H69.3964L64.2021 28.1065H68.1697L68.9061 25.5978C70.7196 26.1303 72.648 26.1303 74.4616 25.5978L75.1979 28.1065H79.1655L73.9718 13.2109ZM71.6841 22.9117C71.0379 22.9116 70.3951 22.8192 69.7751 22.6371L71.6841 16.1367L73.593 22.6393C72.9729 22.8206 72.3301 22.9124 71.6841 22.9117Z" fill="#0052CC"/>
<path d="M127.403 13.2109H122.828L117.634 28.1065H121.601L122.338 25.5978C124.151 26.1303 126.08 26.1303 127.893 25.5978L128.63 28.1065H132.597L127.403 13.2109ZM125.114 22.9117C124.468 22.9116 123.825 22.8192 123.205 22.6371L125.114 16.1367L127.023 22.6393C126.403 22.8206 125.76 22.9124 125.114 22.9117Z" fill="#0052CC"/>
</g>
<defs>
<linearGradient id="paint0_linear_1793_45700" x1="8.14073" y1="19.7331" x2="3.4532" y2="27.8523" gradientUnits="userSpaceOnUse">
<stop stop-color="#0052CC"/>
<stop offset="0.923" stop-color="#2684FF"/>
</linearGradient>
<clipPath id="clip0_1793_45700">
<rect width="148.333" height="40" fill="white" transform="translate(0.333008)"/>
</clipPath>
</defs>
</svg>
