<svg width="114" height="40" viewBox="0 0 114 40" fill="none" xmlns="http://www.w3.org/2000/svg">
<g clip-path="url(#clip0_1793_45698)">
<path d="M82.3614 11.7085H80.1346V28.3802H89.1684V26.3098H82.3614V11.7085ZM97.7677 25.4563C97.2065 26.0374 96.2651 26.6186 94.9978 26.6186C93.2961 26.6186 92.6081 25.7832 92.6081 24.6754C92.6081 23.0227 93.7486 22.2237 96.1926 22.2237C96.6452 22.2237 97.3875 22.2781 97.7677 22.3508V25.4563ZM95.4685 15.3589C93.6581 15.3589 92.0107 15.9945 90.7253 17.066L91.5219 18.4462C92.4271 17.9195 93.5495 17.3747 95.1607 17.3747C96.9892 17.3747 97.8039 18.3191 97.8039 19.8991V20.7163C97.4418 20.6437 96.7176 20.5892 96.2469 20.5892C92.3365 20.5892 90.3632 21.9694 90.3632 24.8388C90.3632 27.4176 91.9383 28.7071 94.328 28.7071C95.9392 28.7071 97.478 27.9625 98.003 26.7639L98.4013 28.3983H99.9763V19.8627C99.9582 17.1568 98.7815 15.3589 95.4685 15.3589ZM107.163 26.7094C106.331 26.7094 105.588 26.6004 105.027 26.3462V18.646C105.788 18.0103 106.729 17.5563 107.924 17.5563C110.078 17.5563 110.911 19.0818 110.911 21.5517C110.929 25.0567 109.571 26.7094 107.163 26.7094ZM108.105 15.3589C106.113 15.3589 105.027 16.7209 105.027 16.7209V14.5598V11.7085H102.837V27.9806C103.923 28.4347 105.426 28.6889 107.055 28.6889C111.219 28.6889 113.228 26.0193 113.228 21.4064C113.228 17.7743 111.382 15.3589 108.105 15.3589ZM58.0662 13.5246C60.0395 13.5246 61.3249 14.1784 62.1577 14.8504L63.1172 13.1796C61.8137 12.0354 60.0395 11.418 58.1748 11.418C53.4317 11.418 50.1006 14.3237 50.1006 20.1715C50.1006 26.3098 53.6851 28.7071 57.7947 28.7071C59.8585 28.7071 61.5964 28.2167 62.737 27.7445L62.6827 21.1885V19.1H56.5817V21.1703H60.474L60.5283 26.1464C60.0214 26.4006 59.1343 26.6004 57.9395 26.6004C54.6446 26.6004 52.436 24.5119 52.436 20.1352C52.436 15.6858 54.717 13.5246 58.0662 13.5246ZM73.7802 11.7085H71.5897V14.5053V24.185C71.5897 26.891 72.7664 28.6889 76.0794 28.6889C76.532 28.6889 76.9846 28.6526 77.4191 28.5618V26.6004C77.1113 26.6549 76.7674 26.6731 76.4053 26.6731C74.5768 26.6731 73.7621 25.7287 73.7621 24.1487V17.4837H77.4191V15.6676H73.7621L73.7802 11.7085ZM66.05 28.3802H68.2405V15.6676H66.05V28.3802ZM66.05 13.906H68.2405V11.7085H66.05V13.906Z" fill="#888F9B"/>
<path d="M20.1743 38.3331L27.4882 15.7773H12.8604L20.1743 38.3331Z" fill="#D74B3A"/>
<path d="M20.1743 38.3331L12.8604 15.7773H2.63184L20.1743 38.3331Z" fill="#F36F3C"/>
<path d="M2.63275 15.7773L0.405998 22.624C0.206857 23.2414 0.424102 23.9315 0.94911 24.3129L20.1571 38.3149L2.63275 15.7773Z" fill="#F3993F"/>
<path d="M2.63184 15.7756H12.8785L8.46123 2.19136C8.24399 1.48309 7.24828 1.48309 7.03104 2.19136L2.63184 15.7756Z" fill="#D74B3A"/>
<path d="M20.1748 38.3331L27.4887 15.7773H37.7354L20.1748 38.3331Z" fill="#F36F3C"/>
<path d="M37.7178 15.7773L39.9445 22.624C40.1437 23.2414 39.9264 23.9315 39.4014 24.3129L20.1934 38.3149L37.7178 15.7773Z" fill="#F3993F"/>
<path d="M37.7174 15.7776H27.4707L31.8699 2.19336C32.1053 1.50325 33.0829 1.50325 33.3001 2.19336L37.7174 15.7776Z" fill="#D74B3A"/>
</g>
<defs>
<clipPath id="clip0_1793_45698">
<rect width="113.333" height="40" fill="white" transform="translate(0.333008)"/>
</clipPath>
</defs>
</svg>
