<svg width="617" height="401" viewBox="0 0 617 401" fill="none" xmlns="http://www.w3.org/2000/svg">
<rect x="18.5" y="66" width="460" height="269" rx="20" fill="#EFF6FF"/>
<g filter="url(#filter0_d_1793_58962)">
<rect x="30.5" y="29" width="507" height="295" rx="20" fill="#262626"/>
</g>
<g clip-path="url(#clip0_1793_58962)">
<path d="M75.455 86.3945H71.7571C71.0791 86.3945 70.5306 86.9492 70.5306 87.6272L70.5244 95.0231C70.5244 95.701 71.0791 96.2557 71.7571 96.2557H81.6182C82.2962 96.2557 82.8509 95.701 82.8509 95.0231V88.8598C82.8509 88.1819 82.2962 87.6272 81.6182 87.6272H76.6876L75.455 86.3945Z" fill="#F5F5F5"/>
</g>
<g clip-path="url(#clip1_1793_58962)">
<path d="M107.683 86.6407C107.39 86.3412 107.036 86.1913 106.618 86.1913C106.201 86.1913 105.846 86.3411 105.554 86.6407C105.262 86.9403 105.116 87.304 105.116 87.7321C105.116 88.0103 105.184 88.2685 105.319 88.5065C105.455 88.7446 105.637 88.9306 105.867 89.0643C105.867 89.3424 105.845 89.5873 105.801 89.7986C105.756 90.0099 105.683 90.1957 105.582 90.3563C105.48 90.5168 105.374 90.6532 105.265 90.7656C105.155 90.878 105.001 90.9836 104.803 91.0826C104.605 91.1816 104.421 91.2644 104.251 91.3314C104.082 91.3981 103.854 91.477 103.567 91.568C103.045 91.734 102.644 91.8863 102.362 92.0255V88.0369C102.591 87.9033 102.774 87.7173 102.909 87.4793C103.045 87.2412 103.113 86.983 103.113 86.7048C103.113 86.2769 102.967 85.913 102.675 85.6135C102.383 85.3139 102.028 85.1641 101.611 85.1641C101.193 85.1641 100.839 85.3138 100.547 85.6135C100.254 85.913 100.108 86.2769 100.108 86.7048C100.108 86.983 100.176 87.2412 100.312 87.4793C100.447 87.7173 100.63 87.9033 100.859 88.0369V94.6176C100.63 94.7513 100.447 94.9374 100.312 95.1754C100.176 95.4135 100.108 95.6717 100.108 95.9498C100.108 96.3778 100.254 96.7416 100.547 97.0411C100.839 97.3406 101.193 97.4905 101.611 97.4905C102.028 97.4905 102.383 97.3406 102.675 97.0411C102.967 96.7416 103.113 96.3778 103.113 95.9498C103.113 95.6717 103.045 95.4135 102.909 95.1754C102.774 94.9374 102.591 94.7513 102.362 94.6176V94.409C102.362 94.0399 102.47 93.7725 102.686 93.6067C102.903 93.4406 103.345 93.2508 104.013 93.0368C104.717 92.8067 105.247 92.5899 105.601 92.3866C106.77 91.7073 107.359 90.5997 107.369 89.0642C107.599 88.9306 107.782 88.7446 107.917 88.5065C108.053 88.2684 108.121 88.0103 108.121 87.7321C108.121 87.3041 107.975 86.9404 107.683 86.6407ZM102.143 96.4957C101.997 96.6456 101.819 96.7204 101.611 96.7204C101.402 96.7204 101.225 96.6456 101.079 96.4957C100.933 96.3461 100.86 96.164 100.86 95.9501C100.86 95.736 100.933 95.5542 101.079 95.4043C101.225 95.2546 101.402 95.1796 101.611 95.1796C101.819 95.1796 101.997 95.2546 102.143 95.4043C102.289 95.5542 102.362 95.736 102.362 95.9501C102.362 96.164 102.289 96.346 102.143 96.4957ZM102.143 87.2506C101.997 87.4004 101.819 87.4753 101.611 87.4753C101.402 87.4753 101.225 87.4004 101.079 87.2506C100.933 87.1008 100.86 86.919 100.86 86.7049C100.86 86.4909 100.933 86.309 101.079 86.1593C101.225 86.0095 101.402 85.9346 101.611 85.9346C101.819 85.9346 101.997 86.0095 102.143 86.1593C102.289 86.309 102.362 86.4909 102.362 86.7049C102.362 86.919 102.289 87.1009 102.143 87.2506ZM107.15 88.2779C107.004 88.4276 106.827 88.5026 106.618 88.5026C106.41 88.5026 106.232 88.4276 106.086 88.2779C105.94 88.1282 105.867 87.9463 105.867 87.7322C105.867 87.5182 105.94 87.3364 106.086 87.1865C106.232 87.0367 106.41 86.9618 106.618 86.9618C106.827 86.9618 107.004 87.0367 107.15 87.1865C107.296 87.3362 107.369 87.5182 107.369 87.7322C107.369 87.9462 107.297 88.1282 107.15 88.2779Z" fill="#F5F5F5"/>
</g>
<g clip-path="url(#clip2_1793_58962)">
<path d="M133.081 92.5569H132.594L132.422 92.3905C133.026 91.6879 133.389 90.7757 133.389 89.7834C133.389 87.5708 131.596 85.7773 129.383 85.7773C127.17 85.7773 125.377 87.5708 125.377 89.7834C125.377 91.996 127.17 93.7895 129.383 93.7895C130.375 93.7895 131.287 93.4259 131.99 92.8219L132.157 92.9945V93.4814L135.238 96.5568L136.156 95.6385L133.081 92.5569ZM129.383 92.5569C127.848 92.5569 126.61 91.3181 126.61 89.7834C126.61 88.2488 127.848 87.01 129.383 87.01C130.918 87.01 132.157 88.2488 132.157 89.7834C132.157 91.3181 130.918 92.5569 129.383 92.5569Z" fill="#3B82F6"/>
</g>
<g clip-path="url(#clip3_1793_58962)">
<path d="M158.658 91.9433V96.8739H163.589V91.9433H158.658ZM152.495 96.8739H157.426V91.9433H152.495V96.8739ZM152.495 85.78V90.7106H157.426V85.78H152.495ZM160.914 84.9727L157.426 88.4549L160.914 91.9433L164.402 88.4549L160.914 84.9727Z" fill="#F5F5F5"/>
</g>
<g clip-path="url(#clip4_1793_58962)">
<path d="M189.561 91.9023C189.586 91.7174 189.598 91.5263 189.598 91.323C189.598 91.1257 189.586 90.9285 189.555 90.7436L190.806 89.7698C190.917 89.6835 190.948 89.5171 190.88 89.3939L189.697 87.3477C189.623 87.2121 189.469 87.1689 189.333 87.2121L187.86 87.8037C187.552 87.5695 187.225 87.3723 186.862 87.2244L186.64 85.6589C186.615 85.511 186.492 85.4062 186.344 85.4062H183.977C183.829 85.4062 183.712 85.511 183.687 85.6589L183.466 87.2244C183.102 87.3723 182.769 87.5757 182.467 87.8037L180.994 87.2121C180.859 87.1628 180.704 87.2121 180.631 87.3477L179.453 89.3939C179.379 89.5233 179.404 89.6835 179.527 89.7698L180.778 90.7436C180.748 90.9285 180.723 91.1319 180.723 91.323C180.723 91.514 180.735 91.7174 180.766 91.9023L179.515 92.8761C179.404 92.9624 179.373 93.1288 179.441 93.252L180.624 95.2982C180.698 95.4338 180.852 95.477 180.988 95.4338L182.461 94.8422C182.769 95.0764 183.096 95.2736 183.459 95.4215L183.681 96.987C183.712 97.1349 183.829 97.2397 183.977 97.2397H186.344C186.492 97.2397 186.615 97.1349 186.634 96.987L186.855 95.4215C187.219 95.2736 187.552 95.0764 187.854 94.8422L189.327 95.4338C189.462 95.4831 189.617 95.4338 189.69 95.2982L190.874 93.252C190.948 93.1165 190.917 92.9624 190.8 92.8761L189.561 91.9023ZM185.16 93.5417C183.94 93.5417 182.942 92.5433 182.942 91.323C182.942 90.1026 183.94 89.1042 185.16 89.1042C186.381 89.1042 187.379 90.1026 187.379 91.323C187.379 92.5433 186.381 93.5417 185.16 93.5417Z" fill="#F5F5F5"/>
</g>
<mask id="path-8-inside-1_1793_58962" fill="white">
<path d="M30.5 49C30.5 37.9543 39.4543 29 50.5 29H517.5C528.546 29 537.5 37.9543 537.5 49V66H30.5V49Z"/>
</mask>
<path d="M30.5 49C30.5 37.9543 39.4543 29 50.5 29H517.5C528.546 29 537.5 37.9543 537.5 49V66H30.5V49Z" fill="#404040"/>
<path d="M30.5 29H537.5H30.5ZM537.5 67H30.5V65H537.5V67ZM30.5 66V29V66ZM537.5 29V66V29Z" fill="#A3A3A3" mask="url(#path-8-inside-1_1793_58962)"/>
<path fill-rule="evenodd" clip-rule="evenodd" d="M59.5 53C62.2614 53 64.5 50.7614 64.5 48C64.5 45.2386 62.2614 43 59.5 43C56.7386 43 54.5 45.2386 54.5 48C54.5 50.7614 56.7386 53 59.5 53Z" fill="white"/>
<path fill-rule="evenodd" clip-rule="evenodd" d="M75.5 53C78.2614 53 80.5 50.7614 80.5 48C80.5 45.2386 78.2614 43 75.5 43C72.7386 43 70.5 45.2386 70.5 48C70.5 50.7614 72.7386 53 75.5 53Z" fill="white"/>
<path fill-rule="evenodd" clip-rule="evenodd" d="M91.5 53C94.2614 53 96.5 50.7614 96.5 48C96.5 45.2386 94.2614 43 91.5 43C88.7386 43 86.5 45.2386 86.5 48C86.5 50.7614 88.7386 53 91.5 53Z" fill="white"/>
<rect x="54.9863" y="129.234" width="73.858" height="10.0715" rx="5.03577" fill="#9CA3AF"/>
<rect x="54.9863" y="223.488" width="73.858" height="10.0715" rx="5.03577" fill="#9CA3AF"/>
<rect x="54.9863" y="176.234" width="73.858" height="10.0715" rx="5.03577" fill="#9CA3AF"/>
<rect x="54.9863" y="270.488" width="73.858" height="10.0715" rx="5.03577" fill="#A3A3A3"/>
<rect x="135.559" y="176.234" width="36.929" height="10.0715" rx="5.03577" fill="#9CA3AF"/>
<rect x="135.559" y="270.488" width="36.929" height="10.0715" rx="5.03577" fill="#A3A3A3"/>
<rect x="54.9863" y="152.734" width="36.929" height="10.0715" rx="5.03577" fill="#16A34A"/>
<rect x="54.9863" y="246.988" width="36.929" height="10.0715" rx="5.03577" fill="#16A34A"/>
<rect x="98.627" y="152.734" width="73.858" height="10.0715" rx="5.03577" fill="#60A5FA"/>
<rect x="98.627" y="246.988" width="73.858" height="10.0715" rx="5.03577" fill="#60A5FA"/>
<rect x="179.199" y="152.734" width="73.858" height="10.0715" rx="5.03577" fill="#A3A3A3"/>
<rect x="259.5" y="152.734" width="73.858" height="10.0715" rx="5.03577" fill="#A3A3A3"/>
<rect x="179.199" y="246.988" width="73.858" height="10.0715" rx="5.03577" fill="#9CA3AF"/>
<rect x="54.9863" y="199.734" width="36.929" height="10.0715" rx="5.03577" fill="#16A34A"/>
<rect x="54.9863" y="293.992" width="36.929" height="10.0715" rx="5.03577" fill="#16A34A"/>
<rect x="98.627" y="199.734" width="40.2862" height="10.0715" rx="5.03577" fill="#60A5FA"/>
<rect x="98.627" y="293.992" width="40.2862" height="10.0715" rx="5.03577" fill="#60A5FA"/>
<rect x="145.629" y="199.734" width="73.858" height="10.0715" rx="5.03577" fill="#A3A3A3"/>
<rect x="145.629" y="293.992" width="73.858" height="10.0715" rx="5.03577" fill="#9CA3AF"/>
<path d="M603.296 234H464.557C458.145 234 452.947 239.285 452.947 245.805V386.881C452.947 393.401 458.145 398.686 464.557 398.686H603.296C609.708 398.686 614.906 393.401 614.906 386.881V245.805C614.906 239.285 609.708 234 603.296 234Z" fill="white" stroke="#E4E6E8" stroke-width="2.69977"/>
<path d="M505.719 305.735L501.538 301.484L481.999 321.353L474.319 313.544L470.139 317.795L481.999 329.855L505.719 305.735Z" fill="#6ECB64"/>
<path opacity="0.5" d="M599.109 262.348H516.54C515.879 262.348 515.344 262.892 515.344 263.564V288.129C515.344 288.801 515.879 289.345 516.54 289.345H599.109C599.77 289.345 600.306 288.801 600.306 288.129V263.564C600.306 262.892 599.77 262.348 599.109 262.348Z" fill="url(#paint0_linear_1793_58962)"/>
<path opacity="0.5" d="M599.109 302.844H516.54C515.879 302.844 515.344 303.388 515.344 304.06V328.625C515.344 329.297 515.879 329.841 516.54 329.841H599.109C599.77 329.841 600.306 329.297 600.306 328.625V304.06C600.306 303.388 599.77 302.844 599.109 302.844Z" fill="url(#paint1_linear_1793_58962)"/>
<path opacity="0.5" d="M583.179 343.34H516.54C515.879 343.34 515.344 343.885 515.344 344.556V369.121C515.344 369.793 515.879 370.338 516.54 370.338H583.179C583.84 370.338 584.375 369.793 584.375 369.121V344.556C584.375 343.885 583.84 343.34 583.179 343.34Z" fill="url(#paint2_linear_1793_58962)"/>
<path d="M507.377 343.34H467.551L488.791 364.938L507.377 343.34Z" fill="#E4E6E8"/>
<path d="M467.551 289.344H507.377L486.136 267.746L467.551 289.344Z" fill="#E4E6E8"/>
<defs>
<filter id="filter0_d_1793_58962" x="0.5" y="0" width="567" height="355" filterUnits="userSpaceOnUse" color-interpolation-filters="sRGB">
<feFlood flood-opacity="0" result="BackgroundImageFix"/>
<feColorMatrix in="SourceAlpha" type="matrix" values="0 0 0 0 0 0 0 0 0 0 0 0 0 0 0 0 0 0 127 0" result="hardAlpha"/>
<feOffset dy="1"/>
<feGaussianBlur stdDeviation="15"/>
<feComposite in2="hardAlpha" operator="out"/>
<feColorMatrix type="matrix" values="0 0 0 0 0 0 0 0 0 0 0 0 0 0 0 0 0 0 0.15 0"/>
<feBlend mode="normal" in2="BackgroundImageFix" result="effect1_dropShadow_1793_58962"/>
<feBlend mode="normal" in="SourceGraphic" in2="effect1_dropShadow_1793_58962" result="shape"/>
</filter>
<linearGradient id="paint0_linear_1793_58962" x1="515.067" y1="275.284" x2="633.427" y2="275.284" gradientUnits="userSpaceOnUse">
<stop stop-color="#D6D9DC"/>
<stop offset="1" stop-color="#EFF0F1"/>
</linearGradient>
<linearGradient id="paint1_linear_1793_58962" x1="515.067" y1="315.78" x2="633.427" y2="315.78" gradientUnits="userSpaceOnUse">
<stop stop-color="#D6D9DC"/>
<stop offset="1" stop-color="#EFF0F1"/>
</linearGradient>
<linearGradient id="paint2_linear_1793_58962" x1="515.119" y1="356.276" x2="611.287" y2="356.276" gradientUnits="userSpaceOnUse">
<stop stop-color="#D6D9DC"/>
<stop offset="1" stop-color="#EFF0F1"/>
</linearGradient>
<clipPath id="clip0_1793_58962">
<rect width="14.7918" height="14.7918" fill="white" transform="translate(69.292 83.9297)"/>
</clipPath>
<clipPath id="clip1_1793_58962">
<rect width="14.7918" height="14.7918" fill="white" transform="translate(96.4102 83.9297)"/>
</clipPath>
<clipPath id="clip2_1793_58962">
<rect width="14.7918" height="14.7918" fill="white" transform="translate(123.528 83.9297)"/>
</clipPath>
<clipPath id="clip3_1793_58962">
<rect width="14.7918" height="14.7918" fill="white" transform="translate(150.646 83.9297)"/>
</clipPath>
<clipPath id="clip4_1793_58962">
<rect width="14.7918" height="14.7918" fill="white" transform="translate(177.765 83.9297)"/>
</clipPath>
</defs>
</svg>
