<svg width="105" height="40" viewBox="0 0 105 40" fill="none" xmlns="http://www.w3.org/2000/svg">
<g clip-path="url(#clip0_1793_31064)">
<path d="M5.96647 8.57224C3.83683 9.46368 1.49564 11.9821 0.756214 15.1433C-0.180209 19.1486 3.71668 20.8423 4.03631 20.287C4.4125 19.6344 3.33803 19.4138 3.11686 17.3356C2.83101 14.6515 4.07885 11.6523 5.64929 10.3364C5.94121 10.0919 5.92732 10.4322 5.92732 11.0616C5.92732 12.1872 5.86513 22.2916 5.86513 24.4004C5.86513 27.2538 5.74727 28.1549 5.5356 29.0453C5.32113 29.9476 4.97633 30.5573 5.2376 30.7921C5.5295 31.0548 6.77583 30.4299 7.49735 29.4229C8.36255 28.2152 8.66541 26.7647 8.71979 25.1896C8.78546 23.2908 8.78267 20.2778 8.78546 18.5592C8.78809 16.983 8.81201 12.3675 8.75784 9.5928C8.74455 8.91223 6.8571 8.19822 5.96637 8.57142L5.96647 8.57224ZM81.5901 21.9262C81.5214 23.4097 81.193 24.5692 80.7855 25.3871C79.9965 26.9704 78.3593 27.4621 77.6642 25.1859C77.2854 23.9452 77.2677 21.8731 77.5401 20.1417C77.8173 18.3779 78.5914 17.0459 79.8732 17.166C81.1375 17.2848 81.7293 18.9139 81.5901 21.9262ZM60.2762 31.1299C60.259 33.5947 59.8711 35.7559 59.0392 36.3836C57.8593 37.2736 56.2735 36.606 56.6019 34.8074C56.8924 33.2158 58.2665 31.5903 60.2795 29.6043C60.2795 29.6043 60.2837 30.0572 60.2762 31.1299ZM59.9539 21.9119C59.8818 23.263 59.5315 24.6203 59.1494 25.3873C58.3606 26.9706 56.7115 27.4656 56.0281 25.1861C55.5609 23.6287 55.6728 21.613 55.904 20.343C56.204 18.6951 56.9311 17.1664 58.2371 17.1664C59.5068 17.1664 60.1329 18.5593 59.9539 21.9119ZM47.6068 21.8912C47.5294 23.3222 47.2502 24.5184 46.8022 25.3873C45.9917 26.9597 44.3882 27.4584 43.681 25.1861C43.1712 23.5477 43.3447 21.3136 43.5568 20.1067C43.8715 18.3158 44.6596 17.0461 45.8899 17.1664C47.1537 17.2898 47.7681 18.9139 47.6068 21.8912ZM104.191 23.5627C103.882 23.5627 103.741 23.8811 103.624 24.4171C103.22 26.2809 102.795 26.7017 102.246 26.7017C101.634 26.7017 101.083 25.7789 100.942 23.9315C100.831 22.4788 100.848 19.8044 100.991 17.1441C101.02 16.5975 100.869 16.0567 99.4028 15.5242C98.772 15.2951 97.855 14.9578 97.3984 16.0599C96.1084 19.1736 95.6036 21.6456 95.4849 22.6498C95.4787 22.7018 95.415 22.7124 95.4038 22.591C95.3281 21.7867 95.159 20.3251 95.1379 17.2543C95.1339 16.6552 95.0069 16.1452 94.3456 15.7277C93.9165 15.4567 92.6135 14.9776 92.1444 15.5476C91.7379 16.0138 91.2671 17.2685 90.778 18.7557C90.3804 19.9645 90.1035 20.7822 90.1035 20.7822C90.1035 20.7822 90.1088 17.5207 90.1135 16.2835C90.1156 15.8168 89.7955 15.6613 89.699 15.6331C89.2644 15.507 88.4084 15.2963 88.045 15.2963C87.5966 15.2963 87.4868 15.5469 87.4868 15.9121C87.4868 15.9599 87.4161 20.2062 87.4161 23.1754C87.4161 23.3044 87.4161 23.4451 87.4174 23.5946C87.1694 24.9593 86.3652 26.8118 85.4906 26.8118C84.6149 26.8118 84.2018 26.0373 84.2018 22.4975C84.2018 20.4325 84.2637 19.5346 84.2942 18.0411C84.3119 17.1808 84.3461 16.5202 84.3441 16.3703C84.3377 15.9106 83.5427 15.6789 83.1728 15.5932C82.8012 15.5069 82.4783 15.4734 82.2261 15.4878C81.8691 15.5079 81.6166 15.7421 81.6166 16.0642C81.6166 16.2368 81.6186 16.5652 81.6186 16.5652C81.1588 15.8428 80.4194 15.34 79.9275 15.1943C78.6024 14.8007 77.2197 15.1494 76.1768 16.6088C75.3479 17.7684 74.8482 19.0817 74.6516 20.9686C74.5078 22.3481 74.5547 23.747 74.8102 24.93C74.5015 26.2649 73.9282 26.8118 73.3006 26.8118C72.3894 26.8118 71.7287 25.3245 71.8054 22.7522C71.856 21.0603 72.1946 19.873 72.5647 18.1553C72.7225 17.423 72.5943 17.0397 72.2727 16.6722C71.9778 16.3353 71.3494 16.1631 70.446 16.3749C69.8026 16.5258 68.8826 16.6882 68.0409 16.8129C68.0409 16.8129 68.0917 16.6102 68.1334 16.253C68.3523 14.3794 66.3164 14.5314 65.6668 15.1298C65.2791 15.4871 65.0151 15.9085 64.9149 16.6661C64.7561 17.8684 65.7367 18.4355 65.7367 18.4355C65.4149 19.9082 64.6263 21.832 63.8121 23.2229C63.376 23.9682 63.0424 24.5204 62.6118 25.1074C62.6102 24.8888 62.609 24.6703 62.6082 24.4527C62.5984 21.3565 62.6396 18.9197 62.6578 18.0414C62.6755 17.1811 62.71 16.538 62.708 16.3881C62.7032 16.0519 62.5068 15.9249 62.0984 15.7641C61.7373 15.6219 61.3103 15.5235 60.8674 15.4891C60.3083 15.4455 59.9716 15.742 59.9803 16.0927C59.982 16.1589 59.982 16.5653 59.982 16.5653C59.5223 15.8429 58.7829 15.3401 58.2909 15.1944C56.9658 14.801 55.5832 15.1497 54.5402 16.609C53.7115 17.7685 53.1688 19.3957 53.015 20.9544C52.8717 22.4071 52.8982 23.6416 53.0934 24.6816C52.8828 25.723 52.277 26.8119 51.592 26.8119C50.7163 26.8119 50.2181 26.0374 50.2181 22.4977C50.2181 20.4327 50.2801 19.5347 50.3106 18.0414C50.3282 17.1811 50.3624 16.5203 50.3605 16.3706C50.354 15.9109 49.559 15.6792 49.1892 15.5933C48.8021 15.5039 48.468 15.4709 48.2114 15.4898C47.8729 15.5151 47.6348 15.8182 47.6348 16.0443V16.5653C47.1751 15.8429 46.4357 15.3401 45.9437 15.1944C44.6187 14.801 43.2437 15.1553 42.1931 16.609C41.5079 17.5568 40.9533 18.6076 40.6678 20.9337C40.5853 21.6059 40.5489 22.2354 40.5536 22.8238C40.2804 24.4946 39.0737 26.4203 38.0867 26.4203C37.5091 26.4203 36.959 25.3 36.959 22.9124C36.959 19.7319 37.1559 15.2037 37.1891 14.7672C37.1891 14.7672 38.4363 14.7461 38.6778 14.7432C39.2998 14.7364 39.8633 14.7511 40.6918 14.7087C41.1074 14.6876 41.5078 13.1961 41.0789 13.0115C40.8845 12.928 39.5105 12.8548 38.9659 12.8432C38.5079 12.8328 37.2329 12.7385 37.2329 12.7385C37.2329 12.7385 37.3473 9.73282 37.3739 9.41531C37.3965 9.15068 37.0541 9.01443 36.8578 8.93175C36.3804 8.72983 35.9532 8.63315 35.4469 8.52877C34.7474 8.38447 34.4301 8.52562 34.3681 9.116C34.2747 10.012 34.2264 12.6364 34.2264 12.6364C33.7131 12.6364 31.9596 12.536 31.4461 12.536C30.9691 12.536 30.4542 14.5877 31.1137 14.6129C31.8726 14.6424 33.195 14.6678 34.0717 14.6942C34.0717 14.6942 34.0327 19.2971 34.0327 20.7181C34.0327 20.8693 34.034 21.0149 34.0343 21.1562C33.5518 23.6711 31.8523 25.0296 31.8523 25.0296C32.2172 23.3658 31.4717 22.1164 30.1288 21.0588C29.634 20.6691 28.6573 19.9312 27.5644 19.1227C27.5644 19.1227 28.1974 18.4989 28.7587 17.2439C29.1564 16.3549 29.1736 15.3375 28.1974 15.1132C26.5844 14.7422 25.2544 15.9268 24.8577 17.1915C24.5504 18.1712 24.7143 18.8982 25.3164 19.6533C25.3604 19.7085 25.408 19.7649 25.4572 19.8216C25.0931 20.5234 24.5929 21.4683 24.1693 22.201C22.9934 24.2354 22.1052 25.8445 21.4339 25.8445C20.8972 25.8445 20.9044 24.2108 20.9044 22.6812C20.9044 21.3626 21.0018 19.3801 21.0796 17.3276C21.1053 16.6487 20.7659 16.262 20.1969 15.9118C19.8512 15.699 19.1133 15.2806 18.686 15.2806C18.0464 15.2806 16.201 15.3676 14.4574 20.4113C14.2376 21.047 13.806 22.2054 13.806 22.2054L13.8431 16.1401C13.8431 15.9979 13.7674 15.8605 13.5939 15.7664C13.3001 15.6069 12.5154 15.2806 11.8176 15.2806C11.4851 15.2806 11.3192 15.4352 11.3192 15.7435L11.2583 25.2326C11.2583 25.9536 11.2771 26.7947 11.3484 27.1626C11.4194 27.5309 11.5345 27.8306 11.677 28.0089C11.8193 28.1868 11.9839 28.3225 12.2553 28.3785C12.5078 28.4305 13.8909 28.6081 13.9628 28.0796C14.0489 27.4462 14.0522 26.761 14.7785 24.2058C15.9091 20.2276 17.3833 18.2866 18.0763 17.5973C18.1974 17.4768 18.3358 17.4696 18.3291 17.6668C18.2996 18.539 18.1955 20.7183 18.1255 22.5699C17.9378 27.5248 18.8391 28.4432 20.1273 28.4432C21.1127 28.4432 22.5019 27.464 23.9911 24.9853C24.9195 23.4407 25.8209 21.9261 26.4685 20.8345C26.9199 21.2523 27.4263 21.7019 27.9325 22.1823C29.1087 23.2986 29.4949 24.3594 29.2386 25.3657C29.0427 26.135 28.3046 26.9278 26.9911 26.1572C26.6083 25.9324 26.4449 25.7587 26.0599 25.5053C25.8531 25.3691 25.5373 25.3284 25.348 25.4711C24.8562 25.8419 24.575 26.3135 24.4144 26.8974C24.2582 27.4656 24.8272 27.7659 25.417 28.0286C25.9249 28.2547 27.0165 28.4596 27.7127 28.4829C30.4252 28.5736 32.5981 27.1732 34.1107 23.5609C34.3815 26.6806 35.5338 28.446 37.536 28.446C38.8745 28.446 40.2166 26.7158 40.8035 25.0137C40.972 25.7075 41.2213 26.3108 41.5434 26.8211C43.0862 29.2654 46.079 28.7393 47.5824 26.6637C48.0472 26.0223 48.118 25.7918 48.118 25.7918C48.3372 27.7517 49.9155 28.4365 50.8192 28.4365C51.8313 28.4365 52.8764 27.958 53.6088 26.3092C53.6946 26.4881 53.7883 26.659 53.8906 26.821C55.4333 29.2654 58.4262 28.7392 59.9296 26.6636C60.0005 26.5662 60.062 26.4779 60.1157 26.3986L60.1599 27.686C60.1599 27.686 59.3022 28.4728 58.7758 28.9554C56.4587 31.0812 54.6969 32.694 54.5673 34.5721C54.4009 36.9669 56.3432 37.8569 57.8125 37.9736C59.373 38.0974 60.7093 37.2354 61.5306 36.0291C62.2531 34.9672 62.7259 32.6819 62.6912 30.4248C62.6774 29.5209 62.6546 28.3717 62.6368 27.1398C63.4512 26.194 64.3687 24.9987 65.2135 23.5996C66.1342 22.0748 67.1209 20.0272 67.6262 18.4337C67.6262 18.4337 68.4835 18.441 69.3984 18.3811C69.691 18.362 69.7751 18.4217 69.721 18.6363C69.6556 18.8955 68.5651 23.1019 69.5604 25.904C70.2416 27.8223 71.7774 28.4394 72.6879 28.4394C73.7538 28.4394 74.7734 27.6345 75.3198 26.4392C75.3857 26.5725 75.4545 26.7014 75.5296 26.8205C77.0724 29.2648 80.0548 28.7356 81.5686 26.6631C81.9103 26.1955 82.1042 25.7912 82.1042 25.7912C82.4291 27.8196 84.0065 28.4463 84.91 28.4463C85.8512 28.4463 86.7444 28.0604 87.4691 26.3457C87.4994 27.1007 87.547 27.7181 87.6223 27.9127C87.6682 28.0317 87.9357 28.1811 88.1302 28.2533C88.9912 28.5726 89.8693 28.4216 90.1942 28.3559C90.4192 28.3104 90.5947 28.1298 90.6187 27.6636C90.6818 26.4394 90.6431 24.3826 91.0142 22.854C91.6371 20.2887 92.2182 19.2936 92.4939 18.8009C92.6482 18.5249 92.8223 18.4794 92.8286 18.7715C92.8416 19.3626 92.8709 21.0983 93.1123 23.4304C93.2895 25.1456 93.5263 26.1594 93.7083 26.4802C94.2275 27.3977 94.8689 27.4412 95.3911 27.4412C95.7234 27.4412 96.4181 27.3494 96.3559 26.7655C96.3257 26.4809 96.3787 24.722 96.9929 22.1947C97.394 20.5442 98.0626 19.0529 98.3038 18.5077C98.3928 18.3067 98.4341 18.4652 98.4327 18.496C98.3819 19.6327 98.2679 23.3504 98.7309 25.3837C99.3586 28.1382 101.174 28.4465 101.807 28.4465C103.158 28.4465 104.263 27.4189 104.635 24.7152C104.725 24.0646 104.592 23.5622 104.194 23.5622" fill="#262626"/>
</g>
<defs>
<clipPath id="clip0_1793_31064">
<rect width="104.167" height="40" fill="white" transform="translate(0.611328)"/>
</clipPath>
</defs>
</svg>
