<svg width="126" height="40" viewBox="0 0 126 40" fill="none" xmlns="http://www.w3.org/2000/svg">
<g clip-path="url(#clip0_1793_31063)">
<path fill-rule="evenodd" clip-rule="evenodd" d="M37.389 20V28.5407L37.3869 28.9821C37.3569 32.0556 37.0049 33.2359 36.3687 34.4255C35.7029 35.6703 34.726 36.6473 33.4811 37.313L33.315 37.4C32.1222 38.0096 30.8501 38.3333 27.5964 38.3333H19.0557V20H37.389Z" fill="url(#paint0_linear_1793_31063)"/>
<path fill-rule="evenodd" clip-rule="evenodd" d="M33.4811 2.68827C34.726 3.35402 35.7029 4.33099 36.3687 5.57585L36.4556 5.74196C37.0653 6.93475 37.389 8.20682 37.389 11.4606V20.0013H19.0557V1.66797H27.5964C31.0015 1.66797 32.2363 2.02251 33.4811 2.68827Z" fill="url(#paint1_linear_1793_31063)"/>
<path fill-rule="evenodd" clip-rule="evenodd" d="M19.056 1.66797V38.3346H10.5153L10.0739 38.3325C7.00039 38.3025 5.82007 37.9505 4.63054 37.3143C3.38568 36.6486 2.40871 35.6716 1.74295 34.4268L1.65604 34.2606C1.04638 33.0679 0.722656 31.7958 0.722656 28.542V11.4606C0.722656 8.05548 1.0772 6.82071 1.74295 5.57585C2.40871 4.33099 3.38568 3.35402 4.63054 2.68827L4.79665 2.60135C5.98944 1.9917 7.26151 1.66797 10.5153 1.66797H19.056Z" fill="url(#paint2_linear_1793_31063)"/>
<path fill-rule="evenodd" clip-rule="evenodd" d="M63.2463 15.4723C62.863 14.9521 62.3634 14.5722 61.7474 14.3327C61.1314 14.0931 60.5291 13.9733 59.9405 13.9733C59.1876 13.9733 58.5031 14.1102 57.8871 14.384C57.2711 14.6578 56.7407 15.0342 56.2958 15.5133C55.8509 15.9924 55.5087 16.5537 55.2691 17.1971C55.0296 17.8404 54.9098 18.5386 54.9098 19.2915C54.9098 20.0854 55.0261 20.8109 55.2589 21.468C55.4916 22.1251 55.8235 22.6897 56.2547 23.162C56.6859 23.6343 57.2027 24.0004 57.805 24.2605C58.4073 24.5206 59.0849 24.6507 59.8378 24.6507C60.6181 24.6507 61.3093 24.4967 61.9117 24.1887C62.514 23.8807 62.9999 23.4734 63.3695 22.9669L65.4434 24.4248C64.8 25.2324 64.0129 25.8587 63.0821 26.3036C62.1512 26.7485 61.063 26.9709 59.8173 26.9709C58.6811 26.9709 57.6373 26.7827 56.6859 26.4063C55.7345 26.0298 54.9166 25.5028 54.2322 24.8252C53.5478 24.1476 53.0139 23.3399 52.6306 22.4023C52.2473 21.4646 52.0557 20.4276 52.0557 19.2915C52.0557 18.1279 52.2576 17.0773 52.6614 16.1396C53.0652 15.2019 53.6196 14.4045 54.3246 13.7475C55.0296 13.0904 55.8612 12.5839 56.8194 12.228C57.7776 11.8721 58.818 11.6941 59.9405 11.6941C60.4059 11.6941 60.8918 11.7386 61.3983 11.8276C61.9048 11.9166 62.3908 12.0535 62.8562 12.2383C63.3216 12.4231 63.7597 12.6523 64.1703 12.9261C64.581 13.1999 64.9301 13.5284 65.2175 13.9117L63.2463 15.4723ZM66.9629 11.0781H69.4269V26.6013H66.9629V11.0781ZM78.6317 20.6877C78.6317 20.3729 78.5872 20.0717 78.4982 19.7843C78.4092 19.4968 78.2689 19.2435 78.0773 19.0245C77.8856 18.8055 77.6426 18.631 77.3483 18.5009C77.054 18.3709 76.7084 18.3059 76.3114 18.3059C75.5722 18.3059 74.9459 18.5283 74.4326 18.9732C73.9193 19.4181 73.6352 19.9896 73.5805 20.6877H78.6317ZM81.0956 21.7965V22.1251C81.0956 22.2346 81.0888 22.3441 81.0751 22.4536H73.5805C73.6078 22.8095 73.7002 23.1346 73.8577 23.4289C74.0151 23.7232 74.2238 23.9765 74.4839 24.1887C74.744 24.4008 75.0383 24.5685 75.3669 24.6917C75.6954 24.8149 76.0376 24.8765 76.3935 24.8765C77.0095 24.8765 77.5297 24.7636 77.9541 24.5377C78.3784 24.3119 78.7275 24.0004 79.0013 23.6035L80.6439 24.9176C79.672 26.2317 78.2621 26.8888 76.4141 26.8888C75.6475 26.8888 74.9425 26.769 74.2991 26.5295C73.6557 26.2899 73.0979 25.9511 72.6257 25.5131C72.1534 25.075 71.7838 24.5377 71.5169 23.9012C71.2499 23.2647 71.1165 22.5426 71.1165 21.7349C71.1165 20.941 71.2499 20.2189 71.5169 19.5687C71.7838 18.9184 72.15 18.364 72.6154 17.9055C73.0808 17.4469 73.6318 17.091 74.2683 16.8377C74.9049 16.5845 75.5927 16.4579 76.3319 16.4579C77.0164 16.4579 77.6495 16.5708 78.2313 16.7967C78.813 17.0225 79.3161 17.3579 79.7404 17.8028C80.1648 18.2477 80.4968 18.8021 80.7363 19.466C80.9759 20.1299 81.0956 20.9067 81.0956 21.7965ZM89.4732 25.3488H89.4116C89.1652 25.7868 88.7683 26.1462 88.2207 26.4268C87.6732 26.7074 87.0503 26.8477 86.3522 26.8477C85.9552 26.8477 85.5411 26.7964 85.1099 26.6937C84.6787 26.5911 84.2817 26.4199 83.919 26.1804C83.5562 25.9408 83.2551 25.626 83.0155 25.2359C82.776 24.8457 82.6562 24.3632 82.6562 23.7883C82.6562 23.0491 82.8649 22.4604 83.2824 22.0224C83.7 21.5843 84.2372 21.249 84.8943 21.0163C85.5514 20.7835 86.2803 20.6295 87.0811 20.5543C87.8819 20.479 88.6656 20.4413 89.4322 20.4413V20.1949C89.4322 19.5789 89.2097 19.1238 88.7648 18.8295C88.32 18.5351 87.7895 18.388 87.1735 18.388C86.6533 18.388 86.1537 18.4975 85.6746 18.7165C85.1955 18.9355 84.7985 19.2025 84.4837 19.5173L83.2106 18.0184C83.7718 17.4982 84.4186 17.1081 85.151 16.848C85.8833 16.5879 86.626 16.4579 87.3788 16.4579C88.2549 16.4579 88.977 16.5811 89.5451 16.8275C90.1132 17.0739 90.5615 17.3955 90.89 17.7925C91.2186 18.1895 91.4479 18.6344 91.5779 19.1272C91.708 19.62 91.773 20.1128 91.773 20.6056V26.6013H89.4732V25.3488ZM89.4322 22.1045H88.8778C88.4808 22.1045 88.0633 22.1216 87.6252 22.1559C87.1872 22.1901 86.7834 22.2654 86.4138 22.3817C86.0442 22.4981 85.7362 22.6623 85.4898 22.8745C85.2434 23.0867 85.1202 23.3776 85.1202 23.7472C85.1202 23.9799 85.1715 24.175 85.2742 24.3324C85.3768 24.4898 85.5103 24.6164 85.6746 24.7123C85.8389 24.8081 86.0236 24.8765 86.229 24.9176C86.4343 24.9587 86.6396 24.9792 86.845 24.9792C87.6937 24.9792 88.3371 24.7533 88.7751 24.3016C89.2132 23.8499 89.4322 23.2339 89.4322 22.4536V22.1045ZM93.9143 16.7453H96.2756V18.388H96.3167C96.5905 17.8131 96.9738 17.3476 97.4666 16.9917C97.9594 16.6358 98.5343 16.4579 99.1914 16.4579C99.2872 16.4579 99.3899 16.4613 99.4994 16.4681C99.6089 16.475 99.7047 16.4921 99.7868 16.5195V18.7781C99.6226 18.7371 99.4823 18.7097 99.3659 18.696C99.2496 18.6823 99.1366 18.6755 99.0271 18.6755C98.4659 18.6755 98.0141 18.7781 97.6719 18.9835C97.3297 19.1888 97.0628 19.4352 96.8711 19.7227C96.6795 20.0101 96.5494 20.3044 96.481 20.6056C96.4125 20.9067 96.3783 21.1463 96.3783 21.3243V26.6013H93.9143V16.7453ZM103.894 11.0781V17.9979H103.955C104.078 17.8336 104.236 17.6625 104.427 17.4845C104.619 17.3066 104.848 17.1423 105.115 16.9917C105.382 16.8411 105.694 16.7145 106.05 16.6119C106.405 16.5092 106.809 16.4579 107.261 16.4579C107.959 16.4579 108.602 16.5913 109.191 16.8583C109.78 17.1252 110.286 17.4914 110.711 17.9568C111.135 18.4222 111.463 18.9698 111.696 19.5995C111.929 20.2291 112.045 20.9067 112.045 21.6323C112.045 22.3578 111.932 23.0388 111.706 23.6753C111.481 24.3119 111.159 24.8663 110.741 25.3385C110.324 25.8108 109.817 26.1872 109.222 26.4679C108.626 26.7485 107.952 26.8888 107.199 26.8888C106.501 26.8888 105.848 26.7382 105.238 26.4371C104.629 26.1359 104.154 25.6979 103.811 25.1229H103.77V26.6013H101.43V11.0781H103.894ZM109.54 21.6323C109.54 21.249 109.482 20.8691 109.366 20.4927C109.249 20.1162 109.075 19.7774 108.842 19.4763C108.609 19.1751 108.315 18.9321 107.959 18.7473C107.603 18.5625 107.186 18.4701 106.707 18.4701C106.255 18.4701 105.851 18.5659 105.495 18.7576C105.139 18.9492 104.835 19.1956 104.581 19.4968C104.328 19.7979 104.136 20.1402 104.006 20.5235C103.876 20.9067 103.811 21.29 103.811 21.6733C103.811 22.0566 103.876 22.4365 104.006 22.8129C104.136 23.1894 104.328 23.5282 104.581 23.8293C104.835 24.1305 105.139 24.3735 105.495 24.5583C105.851 24.7431 106.255 24.8355 106.707 24.8355C107.186 24.8355 107.603 24.7396 107.959 24.548C108.315 24.3563 108.609 24.1099 108.842 23.8088C109.075 23.5076 109.249 23.1654 109.366 22.7821C109.482 22.3988 109.54 22.0155 109.54 21.6323ZM113.735 16.7453H116.199V26.6013H113.735V16.7453ZM113.386 13.3984C113.386 13.0014 113.533 12.6558 113.827 12.3615C114.122 12.0671 114.495 11.92 114.946 11.92C115.398 11.92 115.778 12.0603 116.086 12.3409C116.394 12.6215 116.548 12.974 116.548 13.3984C116.548 13.8227 116.394 14.1752 116.086 14.4559C115.778 14.7365 115.398 14.8768 114.946 14.8768C114.495 14.8768 114.122 14.7296 113.827 14.4353C113.533 14.141 113.386 13.7954 113.386 13.3984ZM117.78 18.7165V16.7453H119.505V13.8912H121.928V16.7453H124.392V18.7165H121.928V23.2955C121.928 23.7335 122.006 24.0963 122.164 24.3837C122.321 24.6712 122.674 24.8149 123.221 24.8149C123.386 24.8149 123.563 24.7978 123.755 24.7636C123.947 24.7294 124.118 24.678 124.268 24.6096L124.351 26.5397C124.132 26.6219 123.871 26.6869 123.57 26.7348C123.269 26.7827 122.982 26.8067 122.708 26.8067C122.051 26.8067 121.517 26.7143 121.106 26.5295C120.696 26.3447 120.371 26.0914 120.131 25.7697C119.891 25.448 119.727 25.0784 119.638 24.6609C119.549 24.2434 119.505 23.7951 119.505 23.316V18.7165H117.78Z" fill="#27282A"/>
</g>
<defs>
<linearGradient id="paint0_linear_1793_31063" x1="28.2223" y1="20" x2="37.389" y2="38.3333" gradientUnits="userSpaceOnUse">
<stop stop-color="#DEF2FE"/>
<stop offset="1" stop-color="#DBF1FE"/>
</linearGradient>
<linearGradient id="paint1_linear_1793_31063" x1="19.0557" y1="1.66797" x2="28.2223" y2="20.0013" gradientUnits="userSpaceOnUse">
<stop stop-color="#57BCFD"/>
<stop offset="1" stop-color="#51B5FD"/>
</linearGradient>
<linearGradient id="paint2_linear_1793_31063" x1="7.59766" y1="1.66797" x2="23.181" y2="32.8346" gradientUnits="userSpaceOnUse">
<stop stop-color="#1CA7FD"/>
<stop offset="1" stop-color="#148CFC"/>
</linearGradient>
<clipPath id="clip0_1793_31063">
<rect width="125" height="40" fill="white" transform="translate(0.722656)"/>
</clipPath>
</defs>
</svg>
