<svg width="39" height="40" viewBox="0 0 39 40" fill="none" xmlns="http://www.w3.org/2000/svg">
<g clip-path="url(#clip0_1793_45704)">
<path d="M67.9446 15.5204C69.9533 13.4854 72.1791 14.0839 72.1791 16.0577C72.1791 17.9841 69.8984 20.0636 67.1477 21.6754C66.8812 21.8285 66.5652 22.0067 66.2464 22.1654C66.1392 21.681 66.0788 21.1437 66.0788 20.5452C66.0788 18.8999 66.7685 16.7119 67.9446 15.5204ZM57.2305 36.2933C54.5623 38.9963 51.1521 35.55 55.1311 31.519C56.0324 30.6059 57.5108 29.6009 59.0496 28.6851C59.9262 30.8899 59.231 34.2583 57.2305 36.2933ZM40.2347 25.4698C38.1875 25.4698 36.863 22.9838 37.2724 19.9133C37.6736 16.8427 39.6604 14.3567 41.7048 14.3567C43.5981 14.3567 44.8732 16.4919 44.7275 19.2479C44.6753 19.646 44.6286 20.0302 44.5901 20.4004C44.0515 23.2371 42.1665 25.4698 40.2347 25.4698ZM13.2118 24.4481C12.544 25.1246 11.7279 25.4837 10.9008 25.4837C10.1286 25.4837 9.46086 25.1301 8.90853 24.5706C7.01522 22.6525 7.1801 17.9451 9.612 15.4731C10.3017 14.7743 11.1343 14.3679 11.9917 14.3679C12.7584 14.3679 13.4316 14.7131 13.9839 15.2726C15.7673 17.0793 15.8717 21.7534 13.2118 24.4481ZM76.5593 25.4531C76.5593 25.4531 75.8009 24.3785 75.5673 24.0723C75.4079 23.8718 75.2101 23.6269 74.688 23.9888C73.5366 24.771 72.2396 25.4865 70.6403 25.4865C69.4202 25.4865 68.3513 25.1719 67.5572 24.4899C67.8896 24.3367 68.2386 24.1669 68.5959 23.9748C70.4837 22.9393 72.0582 21.6253 72.8166 20.857C76.4906 17.135 75.3392 11.5841 70.8629 11.5841C66.6339 11.5841 63.2924 15.7598 63.2924 20.3976C63.2924 21.0964 63.3748 22.093 63.6716 23.1536C63.4215 23.2761 61.7481 24.0973 59.7393 25.2192C57.8515 23.7828 54.9058 24.4286 54.9058 24.4286C57.6399 20.4979 61.7563 14.3567 62.1053 13.8501C62.3554 13.4882 62.3169 13.1291 62.0751 12.5612C61.7646 11.8792 61.454 11.7539 61.0281 11.7539H52.4821C52.2018 11.7539 51.982 11.8847 51.8996 12.2076C51.8226 12.5222 51.6413 13.619 51.611 13.9949C51.5726 14.3707 51.9215 14.6017 52.2843 14.6017H58.4753L52.8751 22.7166C52.8366 22.7472 52.7981 22.7862 52.7679 22.8391C51.9573 24.0277 50.707 25.6952 49.2066 25.6952C48.2751 25.6952 47.1237 25.0188 47.1237 22.8084C47.1237 20.6426 47.9865 16.0688 48.6158 12.5055C48.6845 12.1213 48.5554 11.7455 47.9481 11.7455H46.434C46.085 11.7455 45.8871 11.9599 45.8349 12.2605C45.7443 12.8062 45.6536 13.3434 45.5629 13.8584C44.8127 12.4081 43.6146 11.5868 41.8807 11.5868C40.2732 11.5868 38.7069 12.1937 37.4263 13.4826C34.2278 16.723 34.8351 22.0039 32.0762 24.7989C30.8863 26.0043 29.5371 25.6368 29.5371 23.265C29.5371 20.5563 30.5593 17.5387 31.7354 14.6741C31.9388 14.1675 31.7189 13.7443 31.5018 13.4158C31.1913 12.9565 31.0704 12.7087 30.5098 12.7087C29.6388 12.7087 28.2456 13.2683 25.4564 13.2683C24.8656 13.2683 24.2968 13.246 23.7885 13.207C23.8187 12.7839 23.8269 12.4999 23.8352 12.3942C23.8517 11.9961 23.7143 11.7427 23.2966 11.7427H21.8732C21.3566 11.7427 21.2302 11.9877 21.1697 12.3942C20.9279 14.1201 20.4662 20.4617 17.3281 23.6408C16.9654 24.0083 16.7456 24.1252 16.7456 24.1252C17.526 22.5746 17.9492 20.5396 17.9492 18.9278C17.9492 14.3902 15.2974 11.5813 11.9697 11.5813C10.953 11.5813 9.87854 11.9126 8.87006 12.5473C9.33995 9.78293 9.77138 7.19676 9.92251 6.32265C10.0517 5.58493 9.78512 5.20077 9.59551 4.89455C9.274 4.39067 8.99097 4.16797 8.56779 4.16797H3.65728C3.37699 4.16797 3.1654 4.3684 3.0967 4.68298C3.01427 5.05044 2.8384 6.01921 2.81642 6.46462C2.79993 6.85714 3.06648 7.0019 3.37699 7.0019H6.96851C6.39145 10.5708 5.30053 17.4885 4.96803 19.2229C4.5531 21.4332 2.99778 24.1419 0.384519 25.1023C0.0575181 25.2248 -0.0771295 25.5254 0.0437785 25.879C0.164687 26.2325 0.612596 27.154 0.747243 27.3906C0.884639 27.6356 1.18691 27.797 1.47544 27.6968C2.83291 27.2124 4.07496 26.4302 5.05871 25.4391C5.30053 25.1942 5.53685 24.9158 5.76218 24.6179C6.93553 27.2904 9.32347 28.2647 11.7719 28.2647C14.5363 28.2647 17.5232 27.2904 19.6144 25.1635C22.0628 22.6915 23.085 18.5937 23.5164 15.6902C24.1237 15.7737 24.8134 15.8433 25.4702 15.8433C27.1519 15.8433 28.5616 15.4814 28.5616 15.4814C28.5616 15.4814 26.8661 20.0413 26.8661 23.4042C26.8661 27.1957 28.655 28.2703 30.639 28.2703C32.6779 28.2703 34.1096 26.7197 35.1318 24.8016C35.3984 25.4002 35.7913 26.1156 36.3299 26.6585C37.2532 27.5938 38.3991 28.2703 40.0506 28.2703C41.9384 28.2703 43.5597 27.1651 44.711 25.4698C44.9144 26.1824 45.2331 26.7837 45.6646 27.2208C46.2471 27.811 47.3161 28.2731 48.657 28.2731C50.9598 28.2731 52.2953 26.522 55.8785 26.522C56.3319 26.522 56.7414 26.5916 57.1123 26.7225C55.4691 27.7358 53.9083 28.827 52.952 29.793C49.998 32.7856 49.8606 36.7247 51.8006 38.6901C54.1501 41.0703 57.4998 39.8788 59.591 37.7603C62.0394 35.2799 62.7511 30.592 61.3331 27.3822C63.0451 26.4692 64.4767 25.7927 64.8175 25.6312C65.8864 27.1122 67.6588 28.2731 70.5826 28.2731C72.6738 28.2731 74.7814 27.5214 76.4246 26.2631C76.6884 26.085 76.7407 25.7147 76.5593 25.4531Z" fill="#212123"/>
</g>
<defs>
<clipPath id="clip0_1793_45704">
<rect width="76.6667" height="40" fill="white"/>
</clipPath>
</defs>
</svg>
