<svg width="184" height="40" viewBox="0 0 184 40" fill="none" xmlns="http://www.w3.org/2000/svg">
<g clip-path="url(#clip0_1793_31062)">
<path fill-rule="evenodd" clip-rule="evenodd" d="M7.28339 22.0286L17.5272 11.6593C18.2232 10.9548 19.1493 10.5674 20.1364 10.5674C21.1227 10.5674 22.0488 10.9544 22.744 11.6589L23.5421 12.4668L25.1387 10.8507L24.3406 10.0428C23.2194 8.90788 21.7264 8.28284 20.1356 8.28284C18.5456 8.2832 17.0522 8.90825 15.931 10.0435L5.68717 20.4125L7.28339 22.0286Z" fill="black"/>
<path fill-rule="evenodd" clip-rule="evenodd" d="M20.989 15.1036L19.3848 13.4899L9.09287 23.8438C7.64758 25.2977 5.29597 25.2981 3.85104 23.8445C2.40575 22.3906 2.40575 20.0245 3.85104 18.5706L12.732 9.63681L11.1279 8.02344L2.24728 16.9572C-0.0824252 19.3008 -0.0824252 23.1146 2.24728 25.4579C3.37378 26.5911 4.87385 27.2156 6.47141 27.2156C8.06934 27.2156 9.57013 26.5908 10.6966 25.4575L20.989 15.1036Z" fill="black"/>
<path fill-rule="evenodd" clip-rule="evenodd" d="M31.1717 17.0427C30.0455 15.9095 28.5455 15.2853 26.9472 15.2853C25.3492 15.2857 23.8484 15.9098 22.7219 17.0435L12.4303 27.3972L14.0337 29.011L24.3261 18.6569C25.7717 17.2029 28.123 17.2033 29.5679 18.6565C30.2668 19.3596 30.6517 20.2956 30.6517 21.293C30.6517 22.2907 30.2668 23.2271 29.5679 23.9302L20.6873 32.8641L22.2914 34.4775L31.1717 25.5439C33.5018 23.2002 33.5018 19.3864 31.1717 17.0427Z" fill="black"/>
<path fill-rule="evenodd" clip-rule="evenodd" d="M26.1361 20.4724L15.8925 30.8416C14.4536 32.2974 12.1135 32.2981 10.6754 30.842L9.87731 30.0341L8.28076 31.6503L9.07886 32.4581C10.2 33.5931 11.693 34.2181 13.2841 34.2181C14.8741 34.2177 16.3671 33.5927 17.4886 32.4574L27.7323 22.0885L26.1361 20.4724Z" fill="black"/>
<path fill-rule="evenodd" clip-rule="evenodd" d="M42.379 23.9505C42.5112 24.6121 42.8208 25.1301 43.3073 25.5033C43.7933 25.8773 44.433 26.0639 45.2261 26.0639C46.0066 26.0639 46.6099 25.8802 47.0365 25.5126C47.463 25.1453 47.6761 24.6613 47.6761 24.0608C47.6761 23.7668 47.6191 23.5187 47.5051 23.3166C47.3908 23.1144 47.2318 22.943 47.0278 22.8019C46.823 22.6616 46.5711 22.5416 46.2709 22.4439C45.9707 22.3458 45.6342 22.2417 45.2617 22.1314L44.2892 21.8559C43.7124 21.6967 43.1958 21.5038 42.7395 21.2768C42.2828 21.0502 41.8926 20.7837 41.5684 20.4775C41.2443 20.1713 40.9978 19.8191 40.8297 19.4207C40.6616 19.0227 40.5774 18.5599 40.5774 18.0334C40.5774 17.4821 40.6856 16.9737 40.9019 16.5079C41.1179 16.0429 41.4243 15.6441 41.8207 15.3135C42.2171 14.9829 42.6974 14.7226 43.2622 14.5323C43.8264 14.3431 44.4627 14.2479 45.1717 14.2479C46.505 14.2479 47.5618 14.5693 48.343 15.2124C49.1235 15.8559 49.5798 16.7164 49.7123 17.7946L47.5502 17.9782C47.4177 17.4269 47.1537 16.9982 46.7573 16.692C46.3609 16.3858 45.8084 16.2325 45.0998 16.2325C44.4391 16.2325 43.9226 16.3887 43.5505 16.7012C43.1777 17.0137 42.9914 17.4151 42.9914 17.9049C42.9914 18.1867 43.0459 18.4222 43.1541 18.6121C43.2622 18.8024 43.418 18.9676 43.6224 19.1083C43.8264 19.2493 44.0758 19.3748 44.3698 19.4848C44.6642 19.5951 44.9974 19.7121 45.3699 19.8343L46.289 20.1283C46.8651 20.312 47.385 20.5049 47.8471 20.707C48.3096 20.9092 48.7031 21.1513 49.0273 21.4331C49.3518 21.7149 49.6012 22.0518 49.7751 22.4439C49.9493 22.836 50.0364 23.3199 50.0364 23.8957C50.0364 24.5084 49.9163 25.069 49.6763 25.577C49.4356 26.0857 49.0999 26.5174 48.6671 26.8725C48.2348 27.228 47.7215 27.5038 47.1265 27.6993C46.5319 27.8952 45.8745 27.9936 45.1539 27.9936C43.8206 27.9936 42.7094 27.6752 41.8207 27.038C40.9317 26.4008 40.3854 25.4393 40.181 24.1526L42.379 23.9505Z" fill="black"/>
<path fill-rule="evenodd" clip-rule="evenodd" d="M59.3371 16.4827C58.689 16.4827 58.1094 16.6047 57.5992 16.848C57.0886 17.0916 56.6564 17.4292 56.3026 17.8611C55.9481 18.2934 55.6777 18.805 55.4916 19.3946C55.3058 19.9854 55.2129 20.6274 55.2129 21.3211C55.2129 22.015 55.3087 22.66 55.501 23.2567C55.6926 23.853 55.9662 24.3701 56.3204 24.8086C56.6742 25.2465 57.1068 25.5903 57.6174 25.8402C58.1272 26.0893 58.7067 26.2139 59.3552 26.2139C60.0037 26.2139 60.5829 26.0956 61.0934 25.8583C61.6033 25.6209 62.0359 25.2892 62.39 24.8628C62.7442 24.4371 63.0175 23.9226 63.2094 23.3204C63.4014 22.7179 63.4976 22.0574 63.4976 21.3395C63.4976 20.6333 63.4014 19.9821 63.2094 19.3858C63.0175 18.7899 62.7442 18.2783 62.39 17.8523C62.0359 17.4266 61.6004 17.0916 61.084 16.848C60.568 16.6047 59.9855 16.4827 59.3371 16.4827ZM59.3552 14.5073C60.3278 14.5073 61.2165 14.675 62.021 15.0104C62.8251 15.3458 63.5095 15.8149 64.0742 16.4186C64.6381 17.0227 65.0761 17.745 65.3889 18.5864C65.701 19.4278 65.857 20.3484 65.857 21.3483C65.857 22.3854 65.6919 23.3212 65.3621 24.1563C65.0311 24.9918 64.5604 25.7142 63.9479 26.3237L65.677 28.3909V29.0311H63.4798L62.2728 27.5315C61.8526 27.7264 61.4019 27.8787 60.9222 27.9885C60.4417 28.0983 59.9253 28.1532 59.3734 28.1532C58.3765 28.1532 57.4791 27.9852 56.6807 27.6502C55.882 27.3148 55.2034 26.8452 54.6453 26.2416C54.0868 25.6379 53.6547 24.9188 53.3487 24.083C53.0425 23.2478 52.8893 22.3364 52.8893 21.3483C52.8893 20.3484 53.0425 19.4311 53.3487 18.5953C53.6547 17.7605 54.0897 17.0407 54.6544 16.437C55.2183 15.8333 55.8998 15.3609 56.6985 15.0192C57.4972 14.6783 58.3827 14.5073 59.3552 14.5073Z" fill="black"/>
<path fill-rule="evenodd" clip-rule="evenodd" d="M74.6751 26.1012C75.5965 26.1012 76.3143 25.8106 76.8289 25.2286C77.3432 24.6466 77.6006 23.7555 77.6006 22.5549V14.5073H79.8622V22.6101C79.8622 23.5656 79.7425 24.383 79.5031 25.0631C79.2634 25.7428 78.9227 26.3004 78.4801 26.7353C78.0375 27.1703 77.4929 27.4887 76.847 27.6909C76.2008 27.893 75.4768 27.9937 74.6751 27.9937C73.8611 27.9937 73.1343 27.893 72.4946 27.6909C71.8541 27.4887 71.3128 27.1703 70.8702 26.7353C70.4275 26.3004 70.0865 25.7428 69.8468 25.0631C69.6074 24.383 69.488 23.5656 69.488 22.6101V14.5073H71.7496V22.5549C71.7496 23.7555 72.0067 24.6466 72.5213 25.2286C73.0359 25.8106 73.7537 26.1012 74.6751 26.1012Z" fill="black"/>
<path fill-rule="evenodd" clip-rule="evenodd" d="M86.3414 22.0812H90.6688L89.9566 20.0223C89.6763 19.2159 89.4515 18.5595 89.2812 18.054C89.1105 17.5482 88.9582 17.1028 88.8246 16.7174H88.2588C88.1856 16.9219 88.1124 17.1268 88.0395 17.3313C87.9663 17.5362 87.8843 17.7651 87.7931 18.0176C87.7014 18.2705 87.6014 18.5595 87.4918 18.8848C87.3821 19.2094 87.2482 19.5889 87.09 20.0223L86.3414 22.0812ZM82.1964 27.1022L86.8527 14.7666H90.3039L94.9047 27.1022V27.7343H92.6407L91.3262 24.0317H85.6475L84.3331 27.7343H82.1964V27.1022Z" fill="black"/>
<path fill-rule="evenodd" clip-rule="evenodd" d="M100 20.6906H101.971C102.84 20.6906 103.523 20.5323 104.024 20.2164C104.524 19.9002 104.775 19.3842 104.775 18.6676C104.775 17.9398 104.521 17.4329 104.015 17.1465C103.509 16.8605 102.828 16.7171 101.971 16.7171H100V20.6906ZM107.613 27.7343H105.425L101.465 22.6411H100V27.7343H97.7579V14.7666H101.971C102.634 14.7666 103.264 14.8117 103.861 14.902C104.458 14.9922 104.997 15.2 105.48 15.525C106.504 16.1989 107.017 17.2164 107.017 18.5763C107.017 19.1666 106.929 19.6811 106.754 20.1207C106.579 20.5599 106.347 20.9329 106.058 21.2401C105.769 21.5472 105.434 21.7968 105.055 21.989C104.675 22.1819 104.28 22.3263 103.87 22.4224L107.613 27.1018V27.7343Z" fill="black"/>
<path fill-rule="evenodd" clip-rule="evenodd" d="M110.466 14.7666H118.897V16.7531H112.696V20.1486H118.462V22.099H112.696V25.7474H119.025V27.7343H110.466V14.7666Z" fill="black"/>
<path fill-rule="evenodd" clip-rule="evenodd" d="M124.076 23.9505C124.208 24.6121 124.518 25.1301 125.004 25.5033C125.49 25.8773 126.13 26.0639 126.923 26.0639C127.703 26.0639 128.307 25.8802 128.733 25.5126C129.16 25.1453 129.373 24.6613 129.373 24.0608C129.373 23.7668 129.316 23.5187 129.202 23.3166C129.088 23.1144 128.928 22.943 128.724 22.8019C128.52 22.6616 128.268 22.5416 127.968 22.4439C127.667 22.3458 127.331 22.2417 126.958 22.1314L125.986 21.8559C125.409 21.6967 124.892 21.5038 124.436 21.2768C123.98 21.0502 123.589 20.7837 123.266 20.4775C122.941 20.1713 122.695 19.8191 122.526 19.4207C122.358 19.0227 122.274 18.5599 122.274 18.0334C122.274 17.4821 122.382 16.9737 122.599 16.5079C122.815 16.0429 123.121 15.6441 123.517 15.3135C123.914 14.9829 124.394 14.7226 124.959 14.5323C125.523 14.3431 126.16 14.2479 126.868 14.2479C128.202 14.2479 129.258 14.5693 130.039 15.2124C130.82 15.8559 131.277 16.7164 131.409 17.7946L129.247 17.9782C129.115 17.4269 128.85 16.9982 128.454 16.692C128.058 16.3858 127.505 16.2325 126.796 16.2325C126.136 16.2325 125.619 16.3887 125.247 16.7012C124.875 17.0137 124.688 17.4151 124.688 17.9049C124.688 18.1867 124.743 18.4222 124.851 18.6121C124.959 18.8024 125.115 18.9676 125.319 19.1083C125.523 19.2493 125.772 19.3748 126.067 19.4848C126.361 19.5951 126.694 19.7121 127.066 19.8343L127.986 20.1283C128.562 20.312 129.082 20.5049 129.544 20.707C130.006 20.9092 130.4 21.1513 130.724 21.4331C131.048 21.7149 131.298 22.0518 131.472 22.4439C131.646 22.836 131.733 23.3199 131.733 23.8957C131.733 24.5084 131.613 25.069 131.373 25.577C131.132 26.0857 130.796 26.5174 130.364 26.8725C129.931 27.228 129.418 27.5038 128.823 27.6993C128.228 27.8952 127.571 27.9936 126.851 27.9936C125.518 27.9936 124.406 27.6752 123.517 27.038C122.628 26.4008 122.082 25.4393 121.878 24.1526L124.076 23.9505Z" fill="black"/>
<path fill-rule="evenodd" clip-rule="evenodd" d="M137.402 20.7989H139.608C140.013 20.7989 140.384 20.7661 140.721 20.7002C141.057 20.6347 141.352 20.5245 141.603 20.3691C141.855 20.2141 142.05 20.0052 142.192 19.7425C142.332 19.4801 142.403 19.1577 142.403 18.7756C142.403 18.3819 142.332 18.0511 142.192 17.7825C142.05 17.514 141.857 17.3022 141.612 17.1468C141.367 16.9914 141.076 16.8812 140.739 16.8157C140.402 16.7502 140.037 16.7171 139.645 16.7171H137.402V20.7989ZM135.104 14.7666H139.921C140.816 14.7666 141.566 14.8689 142.173 15.0737C142.78 15.2782 143.27 15.561 143.644 15.9227C144.017 16.2837 144.287 16.708 144.452 17.196C144.618 17.6832 144.701 18.2101 144.701 18.776C144.701 19.4506 144.587 20.0372 144.361 20.5369C144.134 21.0365 143.806 21.4488 143.377 21.7741C142.948 22.099 142.427 22.3429 141.815 22.5055C141.202 22.6682 140.509 22.7493 139.737 22.7493H137.402V27.7343H135.104V14.7666Z" fill="black"/>
<path fill-rule="evenodd" clip-rule="evenodd" d="M149.365 22.0812H153.692L152.98 20.0223C152.7 19.2159 152.474 18.5595 152.304 18.054C152.134 17.5482 151.981 17.1028 151.848 16.7174H151.282C151.209 16.9219 151.136 17.1268 151.062 17.3313C150.99 17.5362 150.907 17.7651 150.816 18.0176C150.725 18.2705 150.625 18.5595 150.515 18.8848C150.405 19.2094 150.271 19.5889 150.113 20.0223L149.365 22.0812ZM145.22 27.1022L149.876 14.7666H153.327L157.928 27.1022V27.7343H155.664L154.35 24.0317H148.671L147.356 27.7343H145.22V27.1022Z" fill="black"/>
<path fill-rule="evenodd" clip-rule="evenodd" d="M171.674 24.3057C171.468 24.812 171.197 25.2885 170.864 25.7354C170.53 26.1823 170.127 26.5739 169.654 26.9082C169.181 27.2426 168.632 27.507 168.007 27.7015C167.383 27.8961 166.689 27.9937 165.924 27.9937C164.954 27.9937 164.072 27.8247 163.277 27.487C162.483 27.1501 161.805 26.6828 161.243 26.0865C160.682 25.4895 160.248 24.7789 159.942 23.9531C159.636 23.1278 159.484 22.2328 159.484 21.2683C159.484 20.3045 159.636 19.4096 159.942 18.5839C160.248 17.7585 160.684 17.0442 161.252 16.4414C161.82 15.8393 162.501 15.3658 163.296 15.0227C164.09 14.6788 164.978 14.5073 165.961 14.5073C167.392 14.5073 168.59 14.8391 169.554 15.5017C170.519 16.1642 171.201 17.0442 171.601 18.1409L169.29 18.5926C168.975 17.9301 168.535 17.4085 167.971 17.0289C167.407 16.6494 166.725 16.4596 165.924 16.4596C165.282 16.4596 164.708 16.5827 164.205 16.829C163.702 17.0752 163.277 17.4143 162.932 17.8466C162.586 18.2786 162.322 18.7889 162.14 19.3775C161.958 19.9658 161.867 20.5959 161.867 21.2683C161.867 21.9527 161.961 22.5861 162.149 23.1686C162.337 23.7514 162.61 24.2551 162.968 24.6816C163.326 25.1078 163.759 25.4407 164.269 25.6807C164.778 25.9211 165.36 26.0413 166.015 26.0413C166.865 26.0413 167.565 25.8363 168.117 25.4265C168.669 25.0167 169.096 24.5166 169.399 23.9258L171.674 24.3057Z" fill="black"/>
<path fill-rule="evenodd" clip-rule="evenodd" d="M174.641 14.61H183.12V16.6158H176.884V20.0442H182.683V22.0135H176.884V25.6972H183.248V27.7033H174.641V14.61Z" fill="black"/>
</g>
<defs>
<clipPath id="clip0_1793_31062">
<rect width="183.333" height="40" fill="white" transform="translate(0.5)"/>
</clipPath>
</defs>
</svg>
