<svg width="78" height="40" viewBox="0 0 78 40" fill="none" xmlns="http://www.w3.org/2000/svg">
<g clip-path="url(#clip0_1793_31059)">
<path d="M68.5559 15.5204C70.5647 13.4854 72.7905 14.0839 72.7905 16.0577C72.7905 17.9841 70.5097 20.0636 67.759 21.6754C67.4925 21.8285 67.1765 22.0067 66.8577 22.1654C66.7506 21.681 66.6901 21.1437 66.6901 20.5452C66.6901 18.8999 67.3798 16.7119 68.5559 15.5204ZM57.8418 36.2933C55.1736 38.9963 51.7635 35.55 55.7424 31.519C56.6438 30.6059 58.1221 29.6009 59.661 28.6851C60.5375 30.8899 59.8423 34.2583 57.8418 36.2933ZM40.846 25.4698C38.7988 25.4698 37.4743 22.9838 37.8838 19.9133C38.285 16.8427 40.2717 14.3567 42.3162 14.3567C44.2095 14.3567 45.4845 16.4919 45.3388 19.2479C45.2866 19.646 45.2399 20.0302 45.2015 20.4004C44.6629 23.2371 42.7778 25.4698 40.846 25.4698ZM13.8231 24.4481C13.1553 25.1246 12.3392 25.4837 11.5121 25.4837C10.7399 25.4837 10.0722 25.1301 9.51986 24.5706C7.62655 22.6525 7.79143 17.9451 10.2233 15.4731C10.913 14.7743 11.7457 14.3679 12.603 14.3679C13.3697 14.3679 14.0429 14.7131 14.5952 15.2726C16.3786 17.0793 16.4831 21.7534 13.8231 24.4481ZM77.1706 25.4531C77.1706 25.4531 76.4122 24.3785 76.1786 24.0723C76.0192 23.8718 75.8214 23.6269 75.2993 23.9888C74.1479 24.771 72.8509 25.4865 71.2516 25.4865C70.0316 25.4865 68.9626 25.1719 68.1685 24.4899C68.501 24.3367 68.85 24.1669 69.2072 23.9748C71.095 22.9393 72.6695 21.6253 73.428 20.857C77.1019 17.135 75.9506 11.5841 71.4742 11.5841C67.2452 11.5841 63.9037 15.7598 63.9037 20.3976C63.9037 21.0964 63.9862 22.093 64.2829 23.1536C64.0329 23.2761 62.3594 24.0973 60.3507 25.2192C58.4629 23.7828 55.5171 24.4286 55.5171 24.4286C58.2513 20.4979 62.3676 14.3567 62.7166 13.8501C62.9667 13.4882 62.9282 13.1291 62.6864 12.5612C62.3759 11.8792 62.0654 11.7539 61.6394 11.7539H53.0935C52.8132 11.7539 52.5933 11.8847 52.5109 12.2076C52.434 12.5222 52.2526 13.619 52.2224 13.9949C52.1839 14.3707 52.5329 14.6017 52.8956 14.6017H59.0866L53.4864 22.7166C53.4479 22.7472 53.4095 22.7862 53.3792 22.8391C52.5686 24.0277 51.3183 25.6952 49.8179 25.6952C48.8864 25.6952 47.735 25.0188 47.735 22.8084C47.735 20.6426 48.5979 16.0688 49.2271 12.5055C49.2958 12.1213 49.1667 11.7455 48.5594 11.7455H47.0453C46.6963 11.7455 46.4985 11.9599 46.4463 12.2605C46.3556 12.8062 46.2649 13.3434 46.1742 13.8584C45.424 12.4081 44.2259 11.5868 42.492 11.5868C40.8845 11.5868 39.3182 12.1937 38.0377 13.4826C34.8391 16.723 35.4464 22.0039 32.6875 24.7989C31.4976 26.0043 30.1484 25.6368 30.1484 23.265C30.1484 20.5563 31.1706 17.5387 32.3467 14.6741C32.5501 14.1675 32.3303 13.7443 32.1132 13.4158C31.8027 12.9565 31.6817 12.7087 31.1212 12.7087C30.2501 12.7087 28.8569 13.2683 26.0678 13.2683C25.477 13.2683 24.9082 13.246 24.3998 13.207C24.43 12.7839 24.4383 12.4999 24.4465 12.3942C24.463 11.9961 24.3256 11.7427 23.9079 11.7427H22.4845C21.9679 11.7427 21.8415 11.9877 21.781 12.3942C21.5392 14.1201 21.0776 20.4617 17.9395 23.6408C17.5767 24.0083 17.3569 24.1252 17.3569 24.1252C18.1373 22.5746 18.5605 20.5396 18.5605 18.9278C18.5605 14.3902 15.9087 11.5813 12.581 11.5813C11.5643 11.5813 10.4899 11.9126 9.48139 12.5473C9.95128 9.78293 10.3827 7.19676 10.5338 6.32265C10.663 5.58493 10.3964 5.20077 10.2068 4.89455C9.88533 4.39067 9.6023 4.16797 9.17912 4.16797H4.26861C3.98832 4.16797 3.77673 4.3684 3.70803 4.68298C3.6256 5.05044 3.44973 6.01921 3.42775 6.46462C3.41126 6.85714 3.67781 7.0019 3.98832 7.0019H7.57984C7.00278 10.5708 5.91186 17.4885 5.57936 19.2229C5.16443 21.4332 3.60911 24.1419 0.995847 25.1023C0.668846 25.2248 0.534199 25.5254 0.655107 25.879C0.776015 26.2325 1.22392 27.154 1.35857 27.3906C1.49597 27.6356 1.79824 27.797 2.08677 27.6968C3.44423 27.2124 4.68629 26.4302 5.67004 25.4391C5.91186 25.1942 6.14818 24.9158 6.37351 24.6179C7.54686 27.2904 9.9348 28.2647 12.3832 28.2647C15.1476 28.2647 18.1346 27.2904 20.2257 25.1635C22.6741 22.6915 23.6963 18.5937 24.1277 15.6902C24.735 15.7737 25.4248 15.8433 26.0815 15.8433C27.7632 15.8433 29.1729 15.4814 29.1729 15.4814C29.1729 15.4814 27.4774 20.0413 27.4774 23.4042C27.4774 27.1957 29.2663 28.2703 31.2503 28.2703C33.2893 28.2703 34.7209 26.7197 35.7432 24.8016C36.0097 25.4002 36.4027 26.1156 36.9412 26.6585C37.8645 27.5938 39.0104 28.2703 40.6619 28.2703C42.5497 28.2703 44.171 27.1651 45.3224 25.4698C45.5257 26.1824 45.8445 26.7837 46.2759 27.2208C46.8584 27.811 47.9274 28.2731 49.2684 28.2731C51.5711 28.2731 52.9066 26.522 56.4899 26.522C56.9433 26.522 57.3527 26.5916 57.7237 26.7225C56.0804 27.7358 54.5196 28.827 53.5633 29.793C50.6093 32.7856 50.4719 36.7247 52.412 38.6901C54.7614 41.0703 58.1111 39.8788 60.2023 37.7603C62.6507 35.2799 63.3624 30.592 61.9445 27.3822C63.6564 26.4692 65.0881 25.7927 65.4288 25.6312C66.4977 27.1122 68.2701 28.2731 71.1939 28.2731C73.2851 28.2731 75.3927 27.5214 77.036 26.2631C77.2998 26.085 77.352 25.7147 77.1706 25.4531Z" fill="#212123"/>
</g>
<defs>
<clipPath id="clip0_1793_31059">
<rect width="76.6667" height="40" fill="white" transform="translate(0.611328)"/>
</clipPath>
</defs>
</svg>
