<svg width="195" height="40" viewBox="0 0 195 40" fill="none" xmlns="http://www.w3.org/2000/svg">
<g clip-path="url(#clip0_1793_59066)">
<path d="M71.2346 28.4055C66.2937 28.4055 63.0889 24.8432 63.0889 21.1356V20.6761C63.0889 16.9057 66.2937 13.4062 71.2346 13.4062C76.1754 13.4062 79.4078 16.9057 79.4078 20.6761V21.1356C79.4078 24.8432 76.2029 28.4055 71.2346 28.4055ZM76.7646 20.7154C76.7646 18.0133 74.8008 15.6096 71.2346 15.6096C67.6684 15.6096 65.736 18.0172 65.736 20.7154V21.0532C65.736 23.7553 67.6998 26.2061 71.2346 26.2061C74.7694 26.2061 76.7646 23.7553 76.7646 21.0532V20.7154Z" fill="#3499CD"/>
<path d="M15.412 27.8596L13.57 24.4034H5.37717L3.58229 27.8596H0.833008L8.37389 13.909H10.5537L18.2202 27.8596H15.412ZM9.39897 16.6308L6.36299 22.4985H12.541L9.39897 16.6308ZM30.1168 28.4055C25.1091 28.4055 22.784 25.6798 22.784 22.0586V13.909H25.3841V22.0979C25.3841 24.6744 27.0808 26.2061 30.3053 26.2061C33.6162 26.2061 34.9751 24.6744 34.9751 22.0979V13.909H37.5948V22.0468C37.5948 25.5149 35.3954 28.4055 30.1168 28.4055ZM52.1738 16.0888V27.8714H49.5542V16.0888H43.4586V13.909H58.2694V16.0888H52.1738ZM102.741 27.8596V16.8193L102.05 18.0368L96.2055 27.8557H94.929L89.1477 18.0368L88.4565 16.8193V27.8596H85.8996V13.909H89.5247L95.0233 23.4804L95.6753 24.6587L96.3233 23.4804L101.771 13.909H105.353V27.8596H102.741ZM125.155 27.8596L123.309 24.4034H115.124L113.345 27.8596H110.596L118.137 13.909H120.313L127.96 27.8596H125.155ZM119.142 16.6308L116.106 22.4985H122.284L119.142 16.6308ZM138.517 16.0888V27.8714H135.901V16.0888H129.806V13.909H144.612V16.0888H138.517ZM157.726 16.0888V27.8714H155.107V16.0888H149.011V13.909H163.826V16.0888H157.726ZM170.275 27.8596V15.2286C171.32 15.2286 171.74 14.6631 171.74 13.909H172.859V27.8596H170.275ZM193.357 17.8483C191.854 16.4163 189.86 15.6139 187.784 15.6057C184.057 15.6057 181.959 18.1625 181.959 20.8214V21.0924C181.959 23.7318 184.076 26.1982 187.972 26.1982C190.011 26.1599 191.961 25.3598 193.44 23.9556L195.011 25.6091C193.051 27.4356 190.463 28.4371 187.784 28.4055C182.505 28.4055 179.3 24.9689 179.3 21.1985V20.739C179.3 16.9685 182.8 13.4062 187.91 13.4062C190.863 13.4062 193.546 14.6434 194.979 16.1909L193.357 17.8483ZM71.557 18.58L69.1585 22.2955C69.0127 22.5212 68.9625 22.7956 69.019 23.0583C69.0755 23.321 69.234 23.5506 69.4597 23.6964L69.4632 23.6984C69.575 23.7706 69.7 23.82 69.8309 23.8439C69.9618 23.8678 70.0961 23.8657 70.2262 23.8377C70.3563 23.8097 70.4796 23.7563 70.5891 23.6807C70.6985 23.605 70.792 23.5085 70.8642 23.3967L73.2632 19.6813C73.4088 19.4555 73.4589 19.1812 73.4023 18.9186C73.3457 18.6559 73.1872 18.4265 72.9615 18.2807L72.958 18.2784C72.8462 18.2062 72.7213 18.1567 72.5904 18.1328C72.4595 18.1089 72.3251 18.111 72.195 18.139C72.0649 18.167 71.9416 18.2204 71.8322 18.2961C71.7227 18.3717 71.6292 18.4682 71.557 18.58Z" fill="#010101"/>
</g>
<defs>
<clipPath id="clip0_1793_59066">
<rect width="194.167" height="40" fill="white" transform="translate(0.833008)"/>
</clipPath>
</defs>
</svg>
