<svg width="93" height="40" viewBox="0 0 93 40" fill="none" xmlns="http://www.w3.org/2000/svg">
<g clip-path="url(#clip0_1793_59061)">
<path fill-rule="evenodd" clip-rule="evenodd" d="M57.2798 31.5042C51.9768 35.4129 44.2904 37.4983 37.6727 37.4983C28.3934 37.4983 20.0398 34.0663 13.7199 28.3581C13.2234 27.9093 13.6683 27.2975 14.2641 27.6471C21.0845 31.6154 29.5176 34.0027 38.2288 34.0027C44.1038 34.0027 50.5666 32.7872 56.5091 30.2648C57.4069 29.8835 58.1576 30.8527 57.2798 31.5042Z" fill="#FF9900"/>
<path fill-rule="evenodd" clip-rule="evenodd" d="M59.4844 28.9818C58.8091 28.1159 55.0037 28.5727 53.2957 28.7753C52.7753 28.8388 52.6958 28.386 53.1646 28.0602C56.1954 25.9271 61.1687 26.5428 61.7486 27.2578C62.3285 27.9768 61.5977 32.962 58.7495 35.3414C58.3126 35.7069 57.8955 35.5122 58.0902 35.0276C58.7297 33.4307 60.1637 29.8517 59.4844 28.9818Z" fill="#FF9900"/>
<path fill-rule="evenodd" clip-rule="evenodd" d="M53.4147 13.003V10.9295C53.4147 10.6157 53.6531 10.4052 53.9391 10.4052H63.2223C63.5202 10.4052 63.7585 10.6197 63.7585 10.9295V12.7051C63.7545 13.003 63.5043 13.3923 63.0594 14.008L58.249 20.8761C60.0365 20.8324 61.9233 21.0985 63.544 22.0121C63.9095 22.2187 64.0088 22.5206 64.0366 22.8185V25.031C64.0366 25.3329 63.7029 25.6865 63.3533 25.5037C60.4973 24.0062 56.7038 23.8433 53.5458 25.5196C53.2241 25.6944 52.8864 25.3449 52.8864 25.043V22.9416C52.8864 22.604 52.8904 22.028 53.228 21.5156L58.8011 13.5234H53.951C53.6531 13.5234 53.4147 13.3129 53.4147 13.003Z" fill="black"/>
<path fill-rule="evenodd" clip-rule="evenodd" d="M19.5512 25.9407H16.7269C16.4568 25.9209 16.2423 25.7183 16.2224 25.4601V10.9653C16.2224 10.6753 16.4647 10.4449 16.7666 10.4449H19.4002C19.6743 10.4568 19.8928 10.6674 19.9126 10.9295V12.8243H19.9643C20.6515 10.9931 21.9425 10.1391 23.6823 10.1391C25.45 10.1391 26.5543 10.9931 27.3487 12.8243C28.0319 10.9931 29.5851 10.1391 31.2495 10.1391C32.4332 10.1391 33.7282 10.6276 34.5187 11.724C35.4124 12.9435 35.2297 14.7151 35.2297 16.2683L35.2257 25.4164C35.2257 25.7064 34.9834 25.9407 34.6815 25.9407H31.8612C31.5792 25.9209 31.3528 25.6944 31.3528 25.4164V17.734C31.3528 17.1223 31.4084 15.5969 31.2733 15.017C31.0628 14.0438 30.4312 13.7697 29.6129 13.7697C28.9297 13.7697 28.2147 14.2265 27.9247 14.9574C27.6347 15.6883 27.6625 16.9118 27.6625 17.734V25.4164C27.6625 25.7064 27.4202 25.9407 27.1183 25.9407H24.298C24.012 25.9209 23.7896 25.6944 23.7896 25.4164L23.7856 17.734C23.7856 16.1173 24.0517 13.7379 22.0458 13.7379C20.0159 13.7379 20.0954 16.0577 20.0954 17.734V25.4164C20.0954 25.7064 19.8531 25.9407 19.5512 25.9407Z" fill="black"/>
<path fill-rule="evenodd" clip-rule="evenodd" d="M71.7506 10.1391C75.9413 10.1391 78.2095 13.7379 78.2095 18.314C78.2095 22.7351 75.703 26.2426 71.7506 26.2426C67.6353 26.2426 65.395 22.6437 65.395 18.1591C65.395 13.6466 67.6631 10.1391 71.7506 10.1391ZM71.7744 13.0984C69.693 13.0984 69.5619 15.9346 69.5619 17.7022C69.5619 19.4739 69.5341 23.2555 71.7506 23.2555C73.9393 23.2555 74.0426 20.2048 74.0426 18.3457C74.0426 17.1223 73.991 15.6605 73.6215 14.5006C73.3037 13.4916 72.6722 13.0984 71.7744 13.0984Z" fill="black"/>
<path fill-rule="evenodd" clip-rule="evenodd" d="M83.6437 25.9407H80.8313C80.5493 25.9209 80.3229 25.6944 80.3229 25.4164L80.3189 10.9176C80.3427 10.6515 80.5771 10.4449 80.8631 10.4449H83.4808C83.7271 10.4568 83.9297 10.6237 83.9853 10.8501V13.0666H84.0369C84.8274 11.0845 85.9357 10.1391 87.886 10.1391C89.1532 10.1391 90.3886 10.5959 91.183 11.8471C91.9219 13.007 91.9219 14.9574 91.9219 16.3596V25.4839C91.8901 25.7381 91.6557 25.9407 91.3777 25.9407H88.5454C88.2872 25.9209 88.0727 25.7302 88.0449 25.4839V17.6109C88.0449 16.026 88.2277 13.7061 86.2773 13.7061C85.5901 13.7061 84.9585 14.1669 84.6447 14.866C84.2475 15.7519 84.1958 16.6337 84.1958 17.6109V25.4164C84.1918 25.7064 83.9455 25.9407 83.6437 25.9407Z" fill="black"/>
<path fill-rule="evenodd" clip-rule="evenodd" d="M46.0144 19.017C46.0144 20.1174 46.0422 21.0349 45.4861 22.0121C45.0373 22.8066 44.3223 23.2952 43.5318 23.2952C42.4473 23.2952 41.8118 22.4689 41.8118 21.2495C41.8118 18.8423 43.9687 18.4053 46.0144 18.4053V19.017ZM48.8625 25.901C48.6759 26.0678 48.4057 26.0797 48.1952 25.9685C47.2578 25.1899 47.0869 24.8285 46.5745 24.0857C45.0253 25.6666 43.925 26.1393 41.919 26.1393C39.5396 26.1393 37.6925 24.6735 37.6925 21.738C37.6925 19.446 38.9319 17.8849 40.7035 17.1223C42.2368 16.447 44.3779 16.3278 46.0144 16.1411V15.7757C46.0144 15.1044 46.0661 14.3099 45.6688 13.73C45.3272 13.2096 44.6678 12.9951 44.0839 12.9951C43.0074 12.9951 42.0501 13.5472 41.8158 14.6912C41.7681 14.9455 41.5814 15.1957 41.3232 15.2076L38.5863 14.9137C38.3559 14.8621 38.0977 14.6754 38.1652 14.3218C38.7929 11.001 41.7959 10 44.4811 10C45.8555 10 47.651 10.3654 48.7354 11.4062C50.1098 12.6892 49.9788 14.4013 49.9788 16.2643V20.6655C49.9788 21.9883 50.5269 22.5682 51.0433 23.2833C51.2221 23.5375 51.2618 23.8433 51.0314 24.034C50.4554 24.5147 49.4306 25.4084 48.8665 25.9089L48.8625 25.901Z" fill="black"/>
<path fill-rule="evenodd" clip-rule="evenodd" d="M8.98888 19.017C8.98888 20.1173 9.01668 21.0349 8.46057 22.0121C8.0117 22.8066 7.30067 23.2952 6.50622 23.2952C5.42179 23.2952 4.7902 22.4689 4.7902 21.2494C4.7902 18.8423 6.94714 18.4053 8.98888 18.4053V19.017ZM11.837 25.901C11.6503 26.0678 11.3802 26.0797 11.1696 25.9685C10.2322 25.1899 10.0654 24.8285 9.54897 24.0856C7.99978 25.6666 6.90344 26.1393 4.89348 26.1393C2.51806 26.1393 0.666992 24.6735 0.666992 21.738C0.666992 19.446 1.91031 17.8849 3.67797 17.1223C5.21126 16.447 7.35231 16.3278 8.98888 16.1411V15.7757C8.98888 15.1044 9.04052 14.3099 8.64727 13.73C8.30168 13.2096 7.64228 12.9951 7.06233 12.9951C5.98585 12.9951 5.02456 13.5472 4.7902 14.6912C4.74253 14.9455 4.55583 15.1957 4.30161 15.2076L1.56075 14.9137C1.33036 14.8621 1.07613 14.6754 1.13969 14.3218C1.77128 11.001 4.77034 10 7.45559 10C8.82999 10 10.6254 10.3654 11.7099 11.4062C13.0843 12.6892 12.9532 14.4013 12.9532 16.2643V20.6655C12.9532 21.9883 13.5014 22.5682 14.0178 23.2832C14.2005 23.5375 14.2402 23.8433 14.0098 24.034C13.4338 24.5146 12.409 25.4084 11.8449 25.9089L11.837 25.901Z" fill="black"/>
</g>
<defs>
<clipPath id="clip0_1793_59061">
<rect width="91.6667" height="40" fill="white" transform="translate(0.666992)"/>
</clipPath>
</defs>
</svg>
