<svg width="95" height="40" viewBox="0 0 95 40" fill="none" xmlns="http://www.w3.org/2000/svg">
<g clip-path="url(#clip0_1793_31060)">
<path d="M24.8145 28.3225V10.0263H27.6571V17.2394C28.5522 15.9061 29.8949 15.2392 31.6848 15.2388C33.2117 15.2388 34.3919 15.6907 35.2257 16.5944C36.0594 17.4982 36.4764 18.7575 36.4765 20.3721V28.3225H33.6338V20.7671C33.6338 18.6788 32.7036 17.6346 30.8431 17.6343C29.9127 17.6343 29.1494 17.9151 28.5529 18.4767C27.9566 19.0383 27.6581 19.8281 27.6576 20.846V28.3223L24.8145 28.3225Z" fill="#323232"/>
<path d="M49.911 26.7434C48.6474 28.007 47.0592 28.6387 45.1462 28.6387C43.2333 28.6387 41.6406 28.007 40.3681 26.7434C39.0956 25.4797 38.4594 23.8736 38.4595 21.925C38.4596 19.9766 39.0958 18.3753 40.3681 17.121C41.6404 15.8664 43.2331 15.239 45.1462 15.2387C47.0593 15.2385 48.6476 15.8659 49.911 17.121C51.1748 18.376 51.8066 19.9774 51.8065 21.925C51.8064 23.8728 51.1746 25.4789 49.911 26.7434ZM42.4479 25.1373C43.1231 25.927 44.0226 26.322 45.1462 26.322C46.27 26.322 47.1694 25.927 47.8445 25.1373C48.5199 24.3475 48.8577 23.2769 48.858 21.925C48.858 20.5914 48.5159 19.5296 47.8314 18.7398C47.147 17.9499 46.2519 17.555 45.1462 17.5551C44.0229 17.5551 43.1234 17.9456 42.4479 18.7265C41.7723 19.5075 41.4345 20.5735 41.4343 21.9245C41.4343 23.2769 41.7721 24.3477 42.4479 25.1373Z" fill="#323232"/>
<path d="M58.3866 28.6383C55.7714 28.6383 54.4638 27.2343 54.4638 24.4262V17.9502H52.4899V15.5547H54.5432L55.2015 11.7909H57.3335V15.5547H62.4142V17.9502H57.3337V24.3473C57.3337 25.5234 57.7636 26.1113 58.6236 26.1112C59.4306 26.1112 60.1589 25.374 60.8085 23.8998L63.02 25.0319C61.9316 27.4365 60.3871 28.6385 58.3866 28.6383Z" fill="#323232"/>
<path d="M63.9339 34.1667C62.6703 34.1667 61.626 33.8157 60.8012 33.1136L61.8542 30.876C62.3634 31.4724 62.9162 31.7709 63.5128 31.7715C64.3024 31.7715 64.6972 31.2626 64.6972 30.2446V15.5547H67.5399V30.2966C67.5399 31.6655 67.2021 32.6528 66.5264 33.2581C65.8507 33.8636 64.9865 34.1664 63.9339 34.1667ZM66.1189 13.3959C65.6515 13.4117 65.197 13.2413 64.8552 12.9221C64.6908 12.7672 64.5613 12.5791 64.4751 12.3704C64.3889 12.1616 64.348 11.9369 64.3552 11.7112C64.3488 11.4836 64.3901 11.2571 64.4762 11.0464C64.5623 10.8356 64.6914 10.6451 64.8552 10.487C65.1989 10.1737 65.6472 10 66.1123 10C66.5773 10 67.0257 10.1737 67.3694 10.487C67.5366 10.6431 67.6689 10.833 67.7574 11.044C67.8459 11.255 67.8887 11.4824 67.8827 11.7112C67.8868 11.9358 67.8432 12.1587 67.7547 12.3652C67.6662 12.5717 67.5349 12.757 67.3694 12.9089C67.2032 13.0684 67.0073 13.1935 66.7927 13.2771C66.5781 13.3606 66.3491 13.401 66.1189 13.3959Z" fill="#323232"/>
<path d="M74.6007 28.6384C73.1438 28.6384 71.9634 28.2742 71.0599 27.546C70.1563 26.8177 69.7045 25.8395 69.7043 24.6114C69.7043 23.4882 70.1737 22.536 71.1127 21.7545C72.0515 20.9731 73.2318 20.5826 74.6533 20.5831C76.11 20.5831 77.3386 21.0482 78.3389 21.9784V20.425C78.3389 19.5127 78.1063 18.8063 77.6412 18.3058C77.176 17.8053 76.5135 17.5552 75.6538 17.5555C73.9163 17.5555 72.837 18.4417 72.4157 20.2142L69.8094 19.6615C70.16 18.2926 70.8533 17.2133 71.8892 16.4235C72.9252 15.6338 74.2151 15.2389 75.7589 15.2389C77.4439 15.2389 78.7734 15.682 79.7473 16.5684C80.7212 17.4547 81.2082 18.749 81.2084 20.4512V28.3226H78.4441V26.7165C77.5137 27.9979 76.2326 28.6386 74.6007 28.6384ZM75.1266 26.5324C76.3904 26.5324 77.4611 25.9007 78.3388 24.6371V24.2418C77.461 23.1889 76.3903 22.6623 75.1266 22.6624C74.3896 22.6624 73.7927 22.8425 73.3357 23.2026C73.1197 23.3616 72.9449 23.5701 72.8259 23.8105C72.7068 24.0509 72.647 24.3163 72.6512 24.5845C72.6442 24.8556 72.7015 25.1244 72.8181 25.3692C72.9348 25.6139 73.1077 25.8277 73.3226 25.9929C73.7711 26.3527 74.3721 26.5325 75.1266 26.5324Z" fill="#323232"/>
<path d="M83.9746 28.3225V15.5547H86.7388V17.766C87.4405 16.1514 88.6515 15.3441 90.3717 15.344C91.3892 15.344 92.2316 15.6775 92.8989 16.3444C93.5662 17.0112 93.8995 17.9063 93.8989 19.0295C93.8919 19.7018 93.7764 20.3685 93.5568 21.0039L90.9506 20.7407C91.0041 20.3918 91.0391 20.0403 91.0557 19.6877C91.0557 18.3715 90.5118 17.7133 89.4238 17.7132C88.6865 17.7132 88.0678 18.1037 87.5678 18.8847C87.0678 19.6657 86.8176 20.6968 86.8174 21.9781V28.3225H83.9746Z" fill="#323232"/>
<path d="M7.05958 17.5092C9.17821 16.3322 12.0798 14.7199 12.0798 10.0273H8.56632C8.56632 12.6528 7.28812 13.3629 5.35327 14.4379C3.23465 15.6153 0.333008 17.2269 0.333008 21.9199H3.84653C3.84653 19.2943 5.12472 18.5842 7.05958 17.5092Z" fill="#FF3C00"/>
<path d="M13.1407 16.4308C13.1407 19.0565 11.8625 19.7666 9.92765 20.8413C7.80959 22.0183 4.90739 23.6305 4.90739 28.3233H8.42077C8.42077 25.6977 9.69896 24.9876 11.6338 23.9127C13.7524 22.7357 16.6539 21.1238 16.6539 16.4308H13.1407Z" fill="#FF3C00"/>
</g>
<defs>
<clipPath id="clip0_1793_31060">
<rect width="94.1667" height="40" fill="white" transform="translate(0.333008)"/>
</clipPath>
</defs>
</svg>
