<svg width="137" height="40" viewBox="0 0 137 40" fill="none" xmlns="http://www.w3.org/2000/svg">
<g clip-path="url(#clip0_1793_31065)">
<path d="M8.98237 26.6649C8.26854 25.9479 7.70383 25.0978 7.3206 24.1632C6.93736 23.2287 6.74313 22.2281 6.74902 21.2187C6.74643 20.2094 6.94604 19.2096 7.33618 18.278C7.72633 17.3463 8.29917 16.5014 9.02123 15.7927C9.33053 15.519 9.58046 15.1855 9.75572 14.8123C9.93099 14.4392 10.0279 14.0344 10.0405 13.6227C10.0531 13.211 9.98115 12.8011 9.82905 12.4181C9.67694 12.035 9.44789 11.6869 9.1559 11.395C8.86392 11.1031 8.51515 10.8737 8.13096 10.7206C7.74677 10.5676 7.33523 10.4942 6.92155 10.5049C6.50786 10.5157 6.10074 10.6104 5.72511 10.7832C5.34948 10.956 5.01324 11.2034 4.73698 11.51C2.14212 14.0775 0.678144 17.5657 0.667056 21.2074C0.655967 24.8491 2.09867 28.346 4.67785 30.9291C4.95321 31.2353 5.28834 31.4825 5.66282 31.6556C6.0373 31.8288 6.44328 31.9242 6.85602 31.936C7.26875 31.9479 7.67958 31.876 8.06348 31.7246C8.44737 31.5733 8.79628 31.3458 9.08894 31.0559C9.38159 30.7659 9.61186 30.4198 9.76571 30.0384C9.91955 29.657 9.99375 29.2484 9.98378 28.8376C9.97381 28.4267 9.87988 28.0222 9.70771 27.6487C9.53554 27.2752 9.28875 26.9404 8.98237 26.6649Z" fill="#FFDA00"/>
<path d="M9.02111 15.7943C10.4763 14.3605 12.4433 13.5594 14.4909 13.5667C16.5385 13.5739 18.4997 14.3889 19.9446 15.833C20.219 16.1425 20.5541 16.3928 20.9292 16.5686C21.3044 16.7444 21.7118 16.842 22.1262 16.8554C22.5407 16.8687 22.9535 16.7975 23.3393 16.6462C23.7252 16.4949 24.0758 16.2667 24.3697 15.9755C24.6636 15.6844 24.8946 15.3364 25.0485 14.9532C25.2023 14.5699 25.2758 14.1593 25.2643 13.7467C25.2528 13.3342 25.1567 12.9283 24.9819 12.554C24.807 12.1798 24.557 11.8451 24.2474 11.5705C22.975 10.2878 21.4606 9.26787 19.7911 8.56935C18.1215 7.87082 16.3298 7.50746 14.5188 7.50011C12.7077 7.49277 10.9131 7.8416 9.2379 8.52656C7.5627 9.21152 6.03996 10.2191 4.75713 11.4915C4.44671 11.7637 4.19537 12.0961 4.01849 12.4684C3.84161 12.8406 3.7429 13.2449 3.72843 13.6564C3.71395 14.068 3.78399 14.4781 3.93428 14.8618C4.08457 15.2454 4.31193 15.5945 4.60246 15.8877C4.89299 16.1809 5.24057 16.412 5.62393 16.5668C6.00728 16.7217 6.41836 16.797 6.83199 16.7883C7.24563 16.7795 7.65312 16.6869 8.02953 16.516C8.40594 16.3451 8.74335 16.0995 9.02111 15.7943Z" fill="#67B3FF"/>
<path d="M19.9254 26.7069C19.2053 27.4188 18.3512 27.9823 17.4119 28.3652C16.4727 28.7481 15.4668 28.9428 14.4518 28.9382C13.4371 28.9397 12.4323 28.7397 11.4962 28.3499C10.5601 27.9601 9.71158 27.3884 9.00022 26.6682C8.72529 26.3604 8.39013 26.1116 8.01525 25.9372C7.64038 25.7627 7.23367 25.6663 6.82004 25.6537C6.40641 25.6412 5.99456 25.7128 5.6097 25.8642C5.22484 26.0156 4.87508 26.2436 4.58183 26.5342C4.28858 26.8248 4.05801 27.1719 3.90425 27.5543C3.75048 27.9367 3.67675 28.3463 3.68756 28.7581C3.69838 29.1698 3.79352 29.575 3.96716 29.9489C4.14079 30.3228 4.38927 30.6574 4.69738 30.9324C5.97195 32.215 7.4883 33.2347 9.15954 33.933C10.8308 34.6312 12.624 34.9944 14.4365 35.0016C16.249 35.0087 18.0451 34.6598 19.7219 33.9748C21.3987 33.2898 22.9232 32.2822 24.2079 31.0097C24.4918 30.7299 24.7175 30.3971 24.8721 30.0304C25.0268 29.6637 25.1073 29.2703 25.1092 28.8726C25.1111 28.4749 25.0343 28.0808 24.8831 27.7126C24.732 27.3445 24.5094 27.0096 24.2282 26.7271C23.947 26.4446 23.6127 26.2199 23.2442 26.066C22.8758 25.9121 22.4806 25.8319 22.081 25.83C21.6814 25.8282 21.2854 25.9046 20.9156 26.0551C20.5457 26.2055 20.2092 26.427 19.9254 26.7069Z" fill="#EB5A68"/>
<path d="M9.02088 15.793C8.59467 16.2167 8.05162 16.5049 7.46062 16.621C6.86962 16.737 6.25729 16.6758 5.70132 16.445C5.14534 16.2142 4.67077 15.8242 4.3378 15.3245C4.00483 14.8249 3.82847 14.238 3.83108 13.6385C3.8337 13.0389 4.01517 12.4536 4.35248 11.9569C4.68979 11.4601 5.16774 11.0742 5.72571 10.8482C6.28367 10.6222 6.89651 10.5663 7.48648 10.6875C8.07644 10.8086 8.61696 11.1015 9.03946 11.5288C9.60234 12.0982 9.91625 12.866 9.91277 13.6647C9.90929 14.4635 9.58869 15.2285 9.02088 15.793Z" fill="#47A1FF"/>
<path d="M8.96241 30.9306C8.53603 31.3541 7.99287 31.6421 7.40182 31.7579C6.81077 31.8737 6.19847 31.8122 5.64259 31.5812C5.08671 31.3502 4.61229 30.96 4.27952 30.4603C3.94675 29.9605 3.77062 29.3736 3.77347 28.774C3.77632 28.1744 3.95803 27.5892 4.29553 27.0926C4.63304 26.596 5.11115 26.2103 5.6692 25.9845C6.22725 25.7587 6.84011 25.703 7.43003 25.8244C8.01995 25.9458 8.56035 26.2389 8.98268 26.6664C9.54533 27.236 9.85894 28.0039 9.85514 28.8026C9.85135 29.6014 9.53045 30.3663 8.96241 30.9306Z" fill="#D5465F"/>
<path d="M37.7789 24.1863C38.6557 23.5271 38.7723 23.8954 39.5122 24.6318C39.8822 25.0001 40.8941 25.6407 40.2319 26.1821C38.85 27.3053 37.6032 27.8098 35.8395 27.8098C31.8475 27.7913 29.0246 24.8252 29.251 20.8906C29.3473 19.1285 30.0484 17.4605 31.432 16.3171C32.6973 15.251 34.2735 14.787 35.9291 14.8256C36.7405 14.8232 37.5444 14.981 38.2942 15.2897C38.802 15.4722 39.2806 15.7271 39.715 16.0464C40.5917 16.719 40.1829 17.1124 39.5004 17.79C39.345 17.9447 39.1896 18.1011 39.0527 18.2558C38.703 18.6039 38.4682 18.8561 38.0019 18.5265C37.1066 17.9061 35.9747 17.5765 34.9053 17.8539C31.459 18.7249 31.6144 24.8303 35.8412 24.8504C36.5419 24.8413 37.2211 24.6084 37.7789 24.1863ZM133.578 27.8854C133.44 27.8861 133.303 27.8595 133.175 27.8072C133.047 27.7549 132.931 27.6779 132.833 27.5807C132.735 27.4835 132.658 27.3679 132.605 27.2407C132.552 27.1135 132.525 26.9772 132.526 26.8396L132.585 13.3123C132.584 13.1747 132.611 13.0383 132.663 12.9111C132.716 12.7838 132.793 12.6681 132.891 12.5707C132.989 12.4733 133.105 12.3962 133.233 12.3437C133.36 12.2912 133.497 12.2644 133.636 12.2648H134.766C134.904 12.2643 135.041 12.2912 135.169 12.3438C135.297 12.3964 135.413 12.4738 135.511 12.5713C135.609 12.6689 135.686 12.7847 135.738 12.9122C135.791 13.0397 135.817 13.1763 135.817 13.314L135.757 26.8413C135.758 26.9788 135.731 27.1151 135.679 27.2423C135.626 27.3695 135.549 27.485 135.451 27.5823C135.353 27.6795 135.237 27.7566 135.11 27.8089C134.982 27.8612 134.845 27.8878 134.707 27.8871L133.578 27.8854ZM127.665 26.3167C126.439 27.46 125.27 28.0603 123.537 28.0603C120.033 28.0401 118.357 25.1531 118.357 21.9163L118.377 16.4129C118.377 16.2754 118.404 16.1391 118.456 16.012C118.509 15.8849 118.587 15.7695 118.685 15.6724C118.783 15.5753 118.899 15.4985 119.027 15.4464C119.155 15.3942 119.291 15.3679 119.43 15.3687H120.56C120.698 15.3681 120.835 15.3947 120.963 15.447C121.091 15.4993 121.207 15.5763 121.304 15.6736C121.402 15.7708 121.479 15.8864 121.532 16.0136C121.585 16.1408 121.611 16.2771 121.611 16.4146L121.592 21.918C121.592 23.7205 122.565 25.1346 124.474 25.1346C126.383 25.1346 127.55 23.5456 127.569 21.7717V19.8061C127.554 19.7297 127.547 19.6519 127.55 19.574L127.569 16.4533C127.568 16.3158 127.595 16.1795 127.648 16.0523C127.7 15.9251 127.778 15.8095 127.875 15.7123C127.973 15.615 128.089 15.538 128.217 15.4857C128.345 15.4333 128.482 15.4068 128.62 15.4074H129.735C129.873 15.4068 130.01 15.4333 130.138 15.4857C130.266 15.538 130.382 15.615 130.479 15.7123C130.577 15.8095 130.654 15.9251 130.707 16.0523C130.76 16.1795 130.786 16.3158 130.786 16.4533L130.748 26.8413C130.746 27.1161 130.634 27.3787 130.437 27.5713C130.24 27.7639 129.974 27.8709 129.698 27.8686H128.743C128.472 27.8602 128.214 27.7493 128.023 27.5584C127.831 27.3675 127.719 27.1111 127.711 26.8413L127.665 26.3167ZM114.223 15.4074H116.404C116.542 15.4094 116.679 15.4386 116.806 15.4933C116.933 15.5481 117.047 15.6273 117.143 15.7264C117.239 15.8255 117.315 15.9425 117.365 16.0708C117.415 16.199 117.439 16.3359 117.436 16.4735V17.1898C117.434 17.4659 117.323 17.7301 117.127 17.9257C116.931 18.1213 116.666 18.2325 116.389 18.2356H114.203L114.164 26.7824C114.165 26.92 114.138 27.0564 114.085 27.1837C114.033 27.311 113.955 27.4266 113.858 27.524C113.76 27.6214 113.644 27.6986 113.516 27.7511C113.388 27.8036 113.251 27.8304 113.113 27.83H111.985C111.846 27.8304 111.709 27.8036 111.581 27.7511C111.453 27.6986 111.337 27.6215 111.239 27.5241C111.142 27.4268 111.064 27.3111 111.011 27.1838C110.959 27.0565 110.932 26.9201 110.932 26.7824L110.971 14.9618C110.971 12.3842 112.451 10.3479 115.1 10.1159C115.178 10.1159 115.235 10.0974 115.313 10.0974C115.468 10.0873 115.625 10.0873 115.781 10.0974H116.794C116.932 10.0994 117.069 10.1285 117.196 10.1832C117.322 10.2378 117.437 10.3169 117.533 10.4158C117.629 10.5147 117.704 10.6316 117.755 10.7596C117.805 10.8876 117.829 11.0243 117.826 11.1618V11.8209C117.825 12.0979 117.713 12.3631 117.517 12.5591C117.32 12.7551 117.054 12.8662 116.776 12.8684H115.958C114.711 12.8684 114.186 13.8168 114.166 14.9803L114.223 15.4074ZM106.396 15.3687H108.787C109.063 15.3714 109.327 15.483 109.52 15.6791C109.714 15.8752 109.821 16.1397 109.819 16.4146V17.1309C109.816 17.4058 109.704 17.6683 109.507 17.861C109.31 18.0536 109.044 18.1605 108.768 18.1583H106.376L106.357 23.3876C106.357 24.3964 106.844 24.9765 107.856 24.9765H108.342C108.619 24.9796 108.882 25.0917 109.076 25.288C109.269 25.4844 109.377 25.7491 109.375 26.0241V26.7505C109.371 27.0252 109.259 27.2875 109.062 27.48C108.865 27.6726 108.6 27.7796 108.324 27.7778H107.408C107.239 27.7812 107.07 27.7745 106.901 27.7577C104.311 27.5895 103.163 25.9182 103.163 23.3977C103.183 20.0062 103.183 16.6349 103.202 13.2434C103.203 13.1072 103.231 12.9725 103.285 12.8471C103.338 12.7218 103.416 12.6081 103.514 12.5127C103.612 12.4173 103.727 12.342 103.854 12.2911C103.981 12.2402 104.117 12.2147 104.254 12.216H105.364C105.64 12.2187 105.904 12.3303 106.097 12.5264C106.291 12.7225 106.398 12.987 106.396 13.2619V15.3687ZM71.764 15.2326H74.1545C74.4307 15.2352 74.6945 15.3468 74.888 15.5429C75.0815 15.739 75.1889 16.0035 75.1867 16.2784V16.9981C75.1836 17.2728 75.0713 17.5351 74.8744 17.7276C74.6774 17.9202 74.4119 18.0272 74.1359 18.0254H71.737V23.2564C71.737 24.2653 72.2235 24.8454 73.2355 24.8454H73.7237C73.8604 24.8467 73.9954 24.8748 74.1212 24.9281C74.2469 24.9814 74.3609 25.0588 74.4566 25.1559C74.5523 25.253 74.6278 25.3679 74.6789 25.4941C74.73 25.6203 74.7556 25.7552 74.7542 25.8913V26.6075C74.7515 26.8824 74.6394 27.145 74.4424 27.3376C74.2454 27.5302 73.9796 27.6372 73.7034 27.6349H72.9838C70.1591 27.6164 68.5238 26.4142 68.5238 23.2631C68.5441 19.8717 68.5441 16.4987 68.5627 13.1072C68.5658 12.8322 68.6783 12.5696 68.8756 12.377C69.0729 12.1845 69.3388 12.0776 69.6152 12.0798H70.7251C71.0012 12.0829 71.2649 12.195 71.4581 12.3914C71.6513 12.5878 71.7583 12.8525 71.7556 13.1274L71.764 15.2326ZM57.7068 16.7055C58.8555 15.6395 60.1023 14.9618 61.7173 14.9618C65.2228 14.9803 67.0338 17.8203 67.0135 21.1042L66.9949 26.6075C66.9954 26.7452 66.9685 26.8817 66.9157 27.0089C66.863 27.1362 66.7855 27.2519 66.6877 27.3493C66.5899 27.4466 66.4736 27.5238 66.3458 27.5763C66.2179 27.6287 66.0808 27.6555 65.9425 27.6551H64.814C64.6756 27.6555 64.5386 27.6287 64.4107 27.5763C64.2828 27.5238 64.1666 27.4466 64.0687 27.3493C63.9709 27.2519 63.8934 27.1362 63.8407 27.0089C63.788 26.8817 63.761 26.7452 63.7615 26.6075L63.7818 21.1428C63.7818 19.3403 62.8087 17.9262 60.8997 17.9262C58.9907 17.9262 57.8233 19.4967 57.8048 21.279L57.7845 26.6075C57.7818 26.8824 57.6696 27.145 57.4726 27.3376C57.2756 27.5302 57.0099 27.6372 56.7337 27.6349H55.6238C55.3476 27.6322 55.0838 27.5206 54.8903 27.3245C54.6968 27.1284 54.5893 26.8639 54.5916 26.5891C54.6102 23.2749 54.6101 19.9423 54.6304 16.6282V16.1826C54.6313 15.908 54.7415 15.645 54.9369 15.4512C55.1323 15.2573 55.3969 15.1485 55.6728 15.1485H56.6273C56.8985 15.1565 57.1564 15.2673 57.3482 15.4583C57.5401 15.6492 57.6514 15.9059 57.6595 16.1758L57.7068 16.7055ZM92.4048 16.84C93.5536 15.7757 94.7986 15.0964 96.4154 15.0964C99.9208 15.1165 101.73 17.9649 101.712 21.2404L101.691 26.7505C101.692 26.8881 101.665 27.0245 101.613 27.1517C101.56 27.279 101.483 27.3947 101.385 27.4921C101.287 27.5895 101.171 27.6666 101.044 27.7191C100.916 27.7717 100.779 27.7985 100.64 27.798H99.512C99.3736 27.7985 99.2366 27.7717 99.1087 27.7192C98.9808 27.6667 98.8646 27.5895 98.7668 27.4922C98.6689 27.3948 98.5914 27.2792 98.5387 27.1519C98.486 27.0246 98.459 26.8882 98.4595 26.7505L98.4798 21.2858C98.4798 19.4833 97.505 18.0692 95.5977 18.0692C93.6904 18.0692 92.5213 19.6379 92.5011 21.422L92.474 26.7505C92.4709 27.0255 92.3584 27.288 92.1611 27.4806C91.9638 27.6732 91.6979 27.7801 91.4216 27.7778H90.3117C90.0358 27.7747 89.7724 27.6629 89.5793 27.4669C89.3861 27.2708 89.2789 27.0065 89.2811 26.732L89.32 16.3238C89.3204 16.187 89.3481 16.0516 89.4013 15.9255C89.4545 15.7993 89.5322 15.6849 89.6301 15.5888C89.7279 15.4927 89.8438 15.4168 89.9713 15.3655C90.0987 15.3141 90.235 15.2884 90.3725 15.2897H91.327C91.5992 15.2987 91.8576 15.411 92.0492 15.6036C92.2409 15.7962 92.3512 16.0545 92.3575 16.3255L92.4048 16.84ZM47.106 14.8643C43.3083 14.8441 40.6221 17.5765 40.6019 21.3362C40.5833 25.1346 43.2305 27.83 47.0671 27.8485C50.9037 27.867 53.5898 25.1934 53.6084 21.3698C53.6286 17.6353 50.8834 14.8828 47.106 14.8643ZM78.6296 22.636C78.9016 24.3796 80.5775 25.0959 82.2128 25.1161C83.0326 25.109 83.8417 24.9308 84.5881 24.5932C84.7081 24.5445 84.8249 24.4884 84.9378 24.425C85.328 24.2115 85.6777 24.077 86.0291 24.425C86.2234 24.6184 86.3991 24.8134 86.5933 24.9866C86.7768 25.1609 86.9463 25.3492 87.1002 25.5499C87.6255 26.2074 87.2556 26.3637 86.6525 26.7706C85.3669 27.6231 83.6927 28.0485 82.1537 28.0485C78.0265 28.0301 75.2999 25.5264 75.2999 21.3833C75.3202 17.4672 78.0451 14.871 81.978 14.8895C85.9902 14.9097 88.2675 17.2553 88.3266 21.2471C88.3452 22.3316 88.3841 22.6814 87.2556 22.6814L78.6296 22.636ZM47.106 17.79C49.0724 17.79 50.3766 19.4967 50.3766 21.3766C50.3766 23.3338 49.1501 24.9076 47.0857 24.9076C45.0213 24.9076 43.8151 23.3186 43.8151 21.3614C43.8151 19.4042 45.0618 17.79 47.106 17.79ZM78.7158 19.9423L85.181 19.9608C84.9462 18.3516 83.6032 17.7127 82.0658 17.7127C80.5285 17.7127 79.1939 18.4307 78.7158 19.9423Z" fill="#29303A"/>
</g>
<defs>
<clipPath id="clip0_1793_31065">
<rect width="135.833" height="40" fill="white" transform="translate(0.666992)"/>
</clipPath>
</defs>
</svg>
