<svg width="39" height="38" viewBox="0 0 39 38" fill="none" xmlns="http://www.w3.org/2000/svg">
<path fill-rule="evenodd" clip-rule="evenodd" d="M15.2845 4.5395C16.4656 3.87985 17.8267 3.50391 19.2755 3.50391C20.7244 3.50391 22.0855 3.87985 23.2665 4.5395L24.1307 3.67538C24.3593 3.44675 24.73 3.44675 24.9586 3.67538C25.1873 3.90402 25.1873 4.27471 24.9586 4.50334L24.265 5.19699C26.215 6.69532 27.4719 9.05102 27.4719 11.7003H11.0792C11.0792 9.05102 12.3361 6.69532 14.2861 5.19699L13.5925 4.50334C13.3638 4.27471 13.3638 3.90402 13.5925 3.67538C13.8211 3.44675 14.1918 3.44675 14.4204 3.67538L15.2845 4.5395ZM16.9337 8.18755C16.9337 8.83423 16.4095 9.35846 15.7628 9.35846C15.1161 9.35846 14.5919 8.83423 14.5919 8.18755C14.5919 7.54088 15.1161 7.01664 15.7628 7.01664C16.4095 7.01664 16.9337 7.54088 16.9337 8.18755ZM22.7883 9.35846C23.4349 9.35846 23.9592 8.83423 23.9592 8.18755C23.9592 7.54088 23.4349 7.01664 22.7883 7.01664C22.1416 7.01664 21.6174 7.54088 21.6174 8.18755C21.6174 8.83423 22.1416 9.35846 22.7883 9.35846Z" fill="#87C527"/>
<path d="M6.39551 14.6276C6.39551 13.6576 7.18186 12.8712 8.15188 12.8712C9.12189 12.8712 9.90824 13.6576 9.90824 14.6276V21.653C9.90824 22.623 9.12189 23.4094 8.15188 23.4094C7.18186 23.4094 6.39551 22.623 6.39551 21.653V14.6276Z" fill="#87C527"/>
<path d="M14.5919 28.093V32.1912C14.5919 33.1613 15.3782 33.9476 16.3483 33.9476C17.3183 33.9476 18.1046 33.1613 18.1046 32.1912V28.093H20.4464V32.1912C20.4464 33.1613 21.2328 33.9476 22.2028 33.9476C23.1728 33.9476 23.9592 33.1613 23.9592 32.1912V28.093H25.1301C26.4234 28.093 27.4719 27.0446 27.4719 25.7512V12.8712H11.0792V25.7512C11.0792 27.0446 12.1276 28.093 13.421 28.093H14.5919Z" fill="#87C527"/>
<path d="M28.6428 14.6276C28.6428 13.6576 29.4292 12.8712 30.3992 12.8712C31.3692 12.8712 32.1556 13.6576 32.1556 14.6276V21.653C32.1556 22.623 31.3692 23.4094 30.3992 23.4094C29.4292 23.4094 28.6428 22.623 28.6428 21.653V14.6276Z" fill="#87C527"/>
</svg>
