<svg width="38" height="39" viewBox="0 0 38 39" fill="none" xmlns="http://www.w3.org/2000/svg">
<path d="M33.0137 14.5108C32.8571 14.6022 29.1306 16.5294 29.1306 20.8025C29.3062 25.6757 33.8333 27.3848 33.911 27.3848C33.8333 27.4761 33.2275 29.7129 31.433 32.0576C30.0088 34.0773 28.428 36.1136 26.0277 36.1136C23.7444 36.1136 22.9247 34.7675 20.2902 34.7675C17.4609 34.7675 16.6603 36.1136 14.4941 36.1136C12.0938 36.1136 10.3959 33.9682 8.89412 31.9674C6.94302 29.3488 5.28465 25.2393 5.2261 21.2935C5.18665 19.2026 5.61683 17.1473 6.70884 15.4015C8.25012 12.9643 11.0018 11.3098 14.0067 11.2553C16.3091 11.1829 18.3582 12.7283 19.7633 12.7283C21.1098 12.7283 23.6273 11.2553 26.4757 11.2553C27.7051 11.2565 30.9837 11.6016 33.0137 14.5108ZM19.5685 10.8378C19.1587 8.92837 20.2902 7.01893 21.344 5.80092C22.6905 4.32792 24.8173 3.32812 26.6513 3.32812C26.7684 5.23757 26.0264 7.11025 24.7002 8.47414C23.5102 9.94714 21.4611 11.056 19.5685 10.8378Z" fill="#283544"/>
</svg>
