<svg width="39" height="40" viewBox="0 0 39 40" fill="none" xmlns="http://www.w3.org/2000/svg">
<g clip-path="url(#clip0_1793_45704)">
<path d="M68.7776 15.5204C70.7863 13.4854 73.0121 14.0839 73.0121 16.0577C73.0121 17.9841 70.7314 20.0636 67.9807 21.6754C67.7142 21.8285 67.3982 22.0067 67.0794 22.1654C66.9722 21.681 66.9118 21.1437 66.9118 20.5452C66.9118 18.8999 67.6015 16.7119 68.7776 15.5204ZM58.0635 36.2933C55.3953 38.9963 51.9851 35.55 55.9641 31.519C56.8654 30.6059 58.3438 29.6009 59.8826 28.6851C60.7592 30.8899 60.064 34.2583 58.0635 36.2933ZM41.0677 25.4698C39.0205 25.4698 37.696 22.9838 38.1055 19.9133C38.5067 16.8427 40.4934 14.3567 42.5378 14.3567C44.4311 14.3567 45.7062 16.4919 45.5605 19.2479C45.5083 19.646 45.4616 20.0302 45.4231 20.4004C44.8845 23.2371 42.9995 25.4698 41.0677 25.4698ZM14.0448 24.4481C13.377 25.1246 12.5609 25.4837 11.7338 25.4837C10.9616 25.4837 10.2939 25.1301 9.74154 24.5706C7.84823 22.6525 8.0131 17.9451 10.445 15.4731C11.1347 14.7743 11.9673 14.3679 12.8247 14.3679C13.5914 14.3679 14.2646 14.7131 14.8169 15.2726C16.6003 17.0793 16.7047 21.7534 14.0448 24.4481ZM77.3923 25.4531C77.3923 25.4531 76.6339 24.3785 76.4003 24.0723C76.2409 23.8718 76.0431 23.6269 75.521 23.9888C74.3696 24.771 73.0726 25.4865 71.4733 25.4865C70.2532 25.4865 69.1843 25.1719 68.3902 24.4899C68.7227 24.3367 69.0716 24.1669 69.4289 23.9748C71.3167 22.9393 72.8912 21.6253 73.6497 20.857C77.3236 17.135 76.1722 11.5841 71.6959 11.5841C67.4669 11.5841 64.1254 15.7598 64.1254 20.3976C64.1254 21.0964 64.2078 22.093 64.5046 23.1536C64.2546 23.2761 62.5811 24.0973 60.5724 25.2192C58.6845 23.7828 55.7388 24.4286 55.7388 24.4286C58.473 20.4979 62.5893 14.3567 62.9383 13.8501C63.1884 13.4882 63.1499 13.1291 62.9081 12.5612C62.5976 11.8792 62.2871 11.7539 61.8611 11.7539H53.3151C53.0348 11.7539 52.815 11.8847 52.7326 12.2076C52.6556 12.5222 52.4743 13.619 52.444 13.9949C52.4056 14.3707 52.7546 14.6017 53.1173 14.6017H59.3083L53.7081 22.7166C53.6696 22.7472 53.6311 22.7862 53.6009 22.8391C52.7903 24.0277 51.54 25.6952 50.0396 25.6952C49.1081 25.6952 47.9567 25.0188 47.9567 22.8084C47.9567 20.6426 48.8195 16.0688 49.4488 12.5055C49.5175 12.1213 49.3884 11.7455 48.7811 11.7455H47.267C46.918 11.7455 46.7201 11.9599 46.6679 12.2605C46.5773 12.8062 46.4866 13.3434 46.3959 13.8584C45.6457 12.4081 44.4476 11.5868 42.7137 11.5868C41.1062 11.5868 39.5399 12.1937 38.2593 13.4826C35.0608 16.723 35.6681 22.0039 32.9092 24.7989C31.7193 26.0043 30.3701 25.6368 30.3701 23.265C30.3701 20.5563 31.3923 17.5387 32.5684 14.6741C32.7718 14.1675 32.5519 13.7443 32.3348 13.4158C32.0243 12.9565 31.9034 12.7087 31.3429 12.7087C30.4718 12.7087 29.0786 13.2683 26.2894 13.2683C25.6986 13.2683 25.1298 13.246 24.6215 13.207C24.6517 12.7839 24.6599 12.4999 24.6682 12.3942C24.6847 11.9961 24.5473 11.7427 24.1296 11.7427H22.7062C22.1896 11.7427 22.0632 11.9877 22.0027 12.3942C21.7609 14.1201 21.2992 20.4617 18.1611 23.6408C17.7984 24.0083 17.5786 24.1252 17.5786 24.1252C18.359 22.5746 18.7822 20.5396 18.7822 18.9278C18.7822 14.3902 16.1304 11.5813 12.8027 11.5813C11.786 11.5813 10.7116 11.9126 9.70307 12.5473C10.173 9.78293 10.6044 7.19676 10.7555 6.32265C10.8847 5.58493 10.6181 5.20077 10.4285 4.89455C10.107 4.39067 9.82398 4.16797 9.4008 4.16797H4.49029C4.21 4.16797 3.99841 4.3684 3.92971 4.68298C3.84728 5.05044 3.67141 6.01921 3.64943 6.46462C3.63294 6.85714 3.89949 7.0019 4.21 7.0019H7.80152C7.22446 10.5708 6.13354 17.4885 5.80104 19.2229C5.38611 21.4332 3.83079 24.1419 1.21753 25.1023C0.890526 25.2248 0.755878 25.5254 0.876786 25.879C0.997694 26.2325 1.4456 27.154 1.58025 27.3906C1.71765 27.6356 2.01992 27.797 2.30845 27.6968C3.66591 27.2124 4.90797 26.4302 5.89172 25.4391C6.13354 25.1942 6.36986 24.9158 6.59518 24.6179C7.76854 27.2904 10.1565 28.2647 12.6049 28.2647C15.3693 28.2647 18.3562 27.2904 20.4474 25.1635C22.8958 22.6915 23.918 18.5937 24.3494 15.6902C24.9567 15.7737 25.6464 15.8433 26.3032 15.8433C27.9849 15.8433 29.3946 15.4814 29.3946 15.4814C29.3946 15.4814 27.6991 20.0413 27.6991 23.4042C27.6991 27.1957 29.488 28.2703 31.472 28.2703C33.511 28.2703 34.9426 26.7197 35.9648 24.8016C36.2314 25.4002 36.6243 26.1156 37.1629 26.6585C38.0862 27.5938 39.2321 28.2703 40.8836 28.2703C42.7714 28.2703 44.3927 27.1651 45.544 25.4698C45.7474 26.1824 46.0661 26.7837 46.4976 27.2208C47.0801 27.811 48.1491 28.2731 49.49 28.2731C51.7928 28.2731 53.1283 26.522 56.7115 26.522C57.1649 26.522 57.5744 26.5916 57.9454 26.7225C56.3021 27.7358 54.7413 28.827 53.785 29.793C50.831 32.7856 50.6936 36.7247 52.6336 38.6901C54.9831 41.0703 58.3328 39.8788 60.424 37.7603C62.8724 35.2799 63.5841 30.592 62.1661 27.3822C63.8781 26.4692 65.3098 25.7927 65.6505 25.6312C66.7194 27.1122 68.4918 28.2731 71.4156 28.2731C73.5068 28.2731 75.6144 27.5214 77.2577 26.2631C77.5215 26.085 77.5737 25.7147 77.3923 25.4531Z" fill="#212123"/>
</g>
<defs>
<clipPath id="clip0_1793_45704">
<rect width="76.6667" height="40" fill="white" transform="translate(0.833008)"/>
</clipPath>
</defs>
</svg>
