<svg width="107" height="40" viewBox="0 0 107 40" fill="none" xmlns="http://www.w3.org/2000/svg">
<g clip-path="url(#clip0_1793_45696)">
<path d="M56.2895 11.7071C56.2895 12.9083 55.3218 13.8759 54.1206 13.8759C52.9194 13.8759 51.9518 12.9083 51.9518 11.7071C51.9518 10.5059 52.8861 9.53824 54.1206 9.53824C55.3552 9.5716 56.2895 10.5392 56.2895 11.7071ZM47.3472 16.0781C47.3472 16.2783 47.3472 16.612 47.3472 16.612C47.3472 16.612 46.3128 15.2773 44.1106 15.2773C40.4736 15.2773 37.6375 18.0467 37.6375 21.8839C37.6375 25.6877 40.4403 28.4905 44.1106 28.4905C46.3462 28.4905 47.3472 27.1225 47.3472 27.1225V27.6897C47.3472 27.9567 47.5474 28.1569 47.8143 28.1569H50.517V15.611C50.517 15.611 48.0479 15.611 47.8143 15.611C47.5474 15.611 47.3472 15.8445 47.3472 16.0781ZM47.3472 24.1195C46.8467 24.8536 45.8457 25.4875 44.6445 25.4875C42.509 25.4875 40.874 24.1529 40.874 21.8839C40.874 19.615 42.509 18.2803 44.6445 18.2803C45.8123 18.2803 46.8801 18.9476 47.3472 19.6483V24.1195ZM52.519 15.611H55.7222V28.1569H52.519V15.611ZM100.367 15.2773C98.1647 15.2773 97.1303 16.612 97.1303 16.612V9.5716H93.9271V28.1569C93.9271 28.1569 96.3962 28.1569 96.6298 28.1569C96.8967 28.1569 97.0969 27.9233 97.0969 27.6897V27.1225C97.0969 27.1225 98.1313 28.4905 100.333 28.4905C103.97 28.4905 106.807 25.6877 106.807 21.8839C106.807 18.0801 103.97 15.2773 100.367 15.2773ZM99.833 25.4542C98.5984 25.4542 97.6308 24.8202 97.1303 24.0861V19.615C97.6308 18.9476 98.6985 18.2469 99.833 18.2469C101.968 18.2469 103.603 19.5816 103.603 21.8505C103.603 24.1195 101.968 25.4542 99.833 25.4542ZM92.2588 20.7161V28.1902H89.0555V21.0831C89.0555 19.0144 88.3882 18.1802 86.5864 18.1802C85.6188 18.1802 84.6178 18.6807 83.9838 19.4148V28.1569H80.7806V15.611H83.3165C83.5834 15.611 83.7836 15.8445 83.7836 16.0781V16.612C84.7179 15.6443 85.9524 15.2773 87.187 15.2773C88.5884 15.2773 89.7562 15.6777 90.6905 16.4785C91.825 17.4128 92.2588 18.614 92.2588 20.7161ZM73.0062 15.2773C70.804 15.2773 69.7696 16.612 69.7696 16.612V9.5716H66.5664V28.1569C66.5664 28.1569 69.0355 28.1569 69.2691 28.1569C69.536 28.1569 69.7362 27.9233 69.7362 27.6897V27.1225C69.7362 27.1225 70.7706 28.4905 72.9728 28.4905C76.6098 28.4905 79.4459 25.6877 79.4459 21.8839C79.4793 18.0801 76.6431 15.2773 73.0062 15.2773ZM72.4723 25.4542C71.2377 25.4542 70.2701 24.8202 69.7696 24.0861V19.615C70.2701 18.9476 71.3378 18.2469 72.4723 18.2469C74.6078 18.2469 76.2427 19.5816 76.2427 21.8505C76.2427 24.1195 74.6078 25.4542 72.4723 25.4542ZM63.797 15.2773C64.7646 15.2773 65.2651 15.4441 65.2651 15.4441V18.4138C65.2651 18.4138 62.5958 17.5129 60.9274 19.4148V28.1902H57.7242V15.611C57.7242 15.611 60.1934 15.611 60.4269 15.611C60.6939 15.611 60.8941 15.8445 60.8941 16.0781V16.612C61.4947 15.9113 62.796 15.2773 63.797 15.2773ZM30.5304 27.0224C30.3635 26.622 30.1967 26.1882 30.0299 25.8212C29.7629 25.2206 29.496 24.6534 29.2624 24.1195L29.2291 24.0861C26.9268 19.0811 24.4576 14.0094 21.855 9.00437L21.7549 8.80417C21.488 8.30367 21.2211 7.7698 20.9541 7.23594C20.6205 6.63533 20.2868 6.00137 19.7529 5.40077C18.6852 4.0661 17.1503 3.33203 15.5154 3.33203C13.847 3.33203 12.3455 4.0661 11.2444 5.33403C10.7439 5.93463 10.3769 6.5686 10.0432 7.1692C9.77629 7.70307 9.50936 8.23694 9.24242 8.73744L9.14232 8.93764C6.57309 13.9426 4.07059 19.0144 1.76829 24.0194L1.73492 24.0861C1.50135 24.62 1.23442 25.1872 0.967485 25.7878C0.800652 26.1549 0.633818 26.5553 0.466985 26.989C0.0332176 28.2236 -0.100249 29.3914 0.0665843 30.5926C0.433618 33.0951 2.10195 35.1972 4.40425 36.1315C5.27179 36.4985 6.17269 36.6654 7.10696 36.6654C7.37389 36.6654 7.70756 36.632 7.97449 36.5986C9.07559 36.4652 10.2101 36.0981 11.3112 35.4642C12.6792 34.6967 13.9805 33.5956 15.4486 31.994C16.9168 33.5956 18.2514 34.6967 19.5861 35.4642C20.6872 36.0981 21.8217 36.4652 22.9228 36.5986C23.1897 36.632 23.5234 36.6654 23.7903 36.6654C24.7246 36.6654 25.6588 36.4985 26.493 36.1315C28.8287 35.1972 30.4636 33.0618 30.8307 30.5926C31.0976 29.4248 30.9641 28.257 30.5304 27.0224ZM15.482 28.7575C13.6802 26.4885 12.5124 24.3531 12.112 22.5513C11.9451 21.7838 11.9118 21.1165 12.0119 20.5159C12.0786 19.982 12.2788 19.5149 12.5457 19.1145C13.1797 18.2136 14.2474 17.6463 15.482 17.6463C16.7166 17.6463 17.8177 18.1802 18.4183 19.1145C18.6852 19.5149 18.8854 19.982 18.9521 20.5159C19.0522 21.1165 19.0189 21.8172 18.852 22.5513C18.4516 24.3197 17.2838 26.4552 15.482 28.7575ZM28.7953 30.3257C28.5617 32.0608 27.3939 33.5623 25.7589 34.2296C24.9581 34.5633 24.0906 34.6634 23.2231 34.5633C22.3889 34.4632 21.5547 34.1962 20.6872 33.6957C19.486 33.0284 18.2848 31.994 16.8834 30.4592C19.0856 27.7565 20.4203 25.2873 20.9208 23.0851C21.1543 22.0508 21.1877 21.1165 21.0876 20.2489C20.9541 19.4148 20.6538 18.6473 20.1867 17.98C19.1523 16.4785 17.4173 15.611 15.482 15.611C13.5467 15.611 11.8117 16.5119 10.7773 17.98C10.3102 18.6473 10.0099 19.4148 9.87639 20.2489C9.74292 21.1165 9.77629 22.0841 10.0432 23.0851C10.5437 25.2873 11.9118 27.7898 14.0806 30.4925C12.7126 32.0274 11.478 33.0618 10.2768 33.7291C9.40926 34.2296 8.57509 34.4965 7.74092 34.5966C6.84002 34.6967 5.97249 34.5633 5.20505 34.263C3.57009 33.5956 2.40225 32.0941 2.16869 30.3591C2.06859 29.5249 2.13532 28.6907 2.46899 27.7565C2.56909 27.4228 2.73592 27.0891 2.90275 26.6887C3.13632 26.1549 3.40325 25.5876 3.67019 25.0204L3.70355 24.9537C6.00586 19.982 8.47499 14.9103 11.0442 9.972L11.1443 9.7718C11.4113 9.2713 11.6782 8.73744 11.9451 8.23694C12.2121 7.70307 12.5124 7.20257 12.8794 6.7688C13.5801 5.968 14.5144 5.53423 15.5487 5.53423C16.5831 5.53423 17.5174 5.968 18.2181 6.7688C18.5851 7.20257 18.8854 7.70307 19.1523 8.23694C19.4193 8.73744 19.6862 9.2713 19.9531 9.7718L20.0532 9.972C22.5891 14.9436 25.0582 20.0154 27.3605 24.987V25.0204C27.6275 25.5543 27.861 26.1549 28.128 26.6887C28.2948 27.0891 28.4616 27.4228 28.5617 27.7565C28.8287 28.624 28.9288 29.4582 28.7953 30.3257Z" fill="#FF5A5F"/>
</g>
<defs>
<clipPath id="clip0_1793_45696">
<rect width="106.667" height="40" fill="white"/>
</clipPath>
</defs>
</svg>
