<svg width="96" height="40" viewBox="0 0 96 40" fill="none" xmlns="http://www.w3.org/2000/svg">
<g clip-path="url(#clip0_1793_45703)">
<path d="M43.4223 18.176V29.2467H40.8653V11.9243L52.3077 23.4853V12.3553H54.8661V29.741L43.4223 18.176ZM69.9283 11.6758C64.9224 11.6758 60.8513 15.7815 60.8513 20.832C60.8513 25.88 64.9224 29.9854 69.9283 29.9854C74.9327 29.9854 79.0057 25.88 79.0057 20.832C79.0057 15.7815 74.9327 11.6758 69.9283 11.6758ZM69.9283 27.3854C66.3802 27.3854 63.4913 24.4448 63.4913 20.832C63.4913 17.2186 66.3802 14.2785 69.9283 14.2785C73.4779 14.2785 76.3636 17.2186 76.3636 20.832C76.3636 24.4449 73.4779 27.3854 69.9283 27.3854ZM25.7945 11.6758C20.7887 11.6758 16.7174 15.7815 16.7174 20.832C16.7174 25.88 20.7887 29.9854 25.7945 29.9854C30.8013 29.9854 34.8715 25.88 34.8715 20.832C34.8715 15.7815 30.8014 11.6758 25.7945 11.6758ZM25.7945 27.3854C22.2449 27.3854 19.3596 24.4448 19.3596 20.832C19.3596 17.2186 22.2449 14.2785 25.7945 14.2785C29.3429 14.2785 32.2312 17.2186 32.2312 20.832C32.2313 24.4449 29.3429 27.3854 25.7945 27.3854ZM5.58329 22.1181L5.57294 22.1137C3.86392 21.5663 2.71996 21.0268 1.85808 20.3623C0.626059 19.4158 0 18.2078 0 16.7728C0 15.429 0.619592 14.1193 1.69928 13.1725C2.80234 12.2066 4.32232 11.6758 5.97781 11.6758C9.44313 11.6758 11.4234 14.0046 11.5065 14.1045L9.40383 15.5373C8.91687 15.1704 7.63739 14.3466 5.97771 14.3466C3.89327 14.3466 2.64732 15.58 2.64732 16.7728C2.64732 17.6049 3.09975 18.5199 6.37343 19.5708L6.38606 19.5729C8.09061 20.1187 9.23875 20.6598 10.0996 21.3224C11.3328 22.271 11.958 23.479 11.958 24.9142C11.958 26.2579 11.3382 27.5697 10.2563 28.5145C9.15557 29.4785 7.63609 30.0091 5.97881 30.0091C2.51459 30.0091 0.534121 27.6825 0.451236 27.5821L2.55558 26.1494C3.04184 26.517 4.32132 27.3405 5.97871 27.3405C8.06405 27.3405 9.31099 26.1096 9.31099 24.9142C9.31129 24.082 8.86005 23.1668 5.58329 22.1181ZM89.3498 22.1181L89.3384 22.1137C87.6307 21.5663 86.4855 21.0268 85.6254 20.3622C84.3941 19.4155 83.7654 18.2075 83.7654 16.7725C83.7654 15.4287 84.3867 14.1191 85.4672 13.1723C86.5664 12.2066 88.0849 11.6758 89.7449 11.6758C93.21 11.6758 95.1914 14.0046 95.2756 14.1045L93.1702 15.5373C92.6843 15.1704 91.4049 14.3466 89.7449 14.3466C87.6588 14.3466 86.4124 15.58 86.4124 16.7728C86.4124 17.6049 86.8654 18.5199 90.1416 19.5708L90.1543 19.5729C91.8609 20.1187 93.005 20.6598 93.8674 21.3224C95.0972 22.271 95.7241 23.479 95.7241 24.9142C95.7241 26.2579 95.1047 27.5697 94.0259 28.5145C92.9236 29.4785 91.4037 30.0091 89.7453 30.0091C86.281 30.0091 84.3021 27.6825 84.2184 27.5821L86.3217 26.1494C86.8093 26.517 88.0852 27.3405 89.7453 27.3405C91.8327 27.3405 93.0762 26.1096 93.0762 24.9142C93.0758 24.082 92.6249 23.1668 89.3498 22.1181Z" fill="#222222"/>
</g>
<defs>
<clipPath id="clip0_1793_45703">
<rect width="95.8333" height="40" fill="white"/>
</clipPath>
</defs>
</svg>
