<svg width="38" height="39" viewBox="0 0 38 39" fill="none" xmlns="http://www.w3.org/2000/svg">
<path d="M35.1693 19.4084C35.1693 28.4572 27.8336 35.8011 18.7766 35.8011C9.71955 35.8011 2.38379 28.4572 2.38379 19.4084C2.38379 10.3514 9.71955 3.01562 18.7766 3.01562C27.8336 3.01562 35.1693 10.3514 35.1693 19.4084Z" fill="#283544"/>
<path d="M8.33895 25.0757H10.1294V16.768H8.33895V25.0757ZM9.23057 15.6786C9.78423 15.6786 10.23 15.2084 10.23 14.6206C10.23 14.0171 9.78423 13.5547 9.23057 13.5547C8.68409 13.5547 8.23828 14.0171 8.23828 14.6206C8.23828 15.2084 8.68409 15.6786 9.23057 15.6786Z" fill="white"/>
<path d="M16.3851 13.5782C13.3579 13.5782 11.4596 15.8275 11.4596 19.4249C11.4596 23.0223 13.3579 25.2638 16.3851 25.2638C19.4051 25.2638 21.3034 23.0223 21.3034 19.4249C21.3034 15.8275 19.4051 13.5782 16.3851 13.5782ZM16.3851 15.3024C18.233 15.3024 19.4123 16.9013 19.4123 19.4249C19.4123 21.9407 18.233 23.5396 16.3851 23.5396C14.5299 23.5396 13.3579 21.9407 13.3579 19.4249C13.3579 16.9013 14.5299 15.3024 16.3851 15.3024Z" fill="white"/>
<path d="M22.3604 21.8937C22.4395 23.9785 24.007 25.2638 26.3942 25.2638C28.9037 25.2638 30.4856 23.9158 30.4856 21.7683C30.4856 20.0833 29.594 19.1349 27.4872 18.6098L26.2936 18.312C25.0208 17.9828 24.4959 17.5439 24.4959 16.7915C24.4959 15.8511 25.2869 15.2241 26.4589 15.2241C27.6454 15.2241 28.4579 15.8589 28.5442 16.9169H30.313C30.2699 14.9262 28.7599 13.5782 26.4733 13.5782C24.2155 13.5782 22.612 14.9341 22.612 16.9405C22.612 18.555 23.518 19.5582 25.4307 20.0362L26.7753 20.3811C28.084 20.7181 28.6161 21.1883 28.6161 22.0034C28.6161 22.9439 27.746 23.6179 26.4949 23.6179C25.2294 23.6179 24.273 22.9361 24.158 21.8937H22.3604Z" fill="white"/>
</svg>
