<svg width="39" height="38" viewBox="0 0 39 38" fill="none" xmlns="http://www.w3.org/2000/svg">
<path d="M13.0374 15.1571C12.4817 16.4538 8.59186 20.5289 8.96232 24.604C10.4442 41.6454 15.6307 30.161 23.4105 34.4213C23.4105 34.4213 37.3029 26.6415 26.1889 14.0457C23.04 9.60017 25.8185 6.08075 23.7809 3.11703C21.7434 0.153317 18.2239 -0.0319149 15.6307 2.74657C13.0374 5.52505 16.7421 9.60017 13.0374 15.1571Z" fill="#333333"/>
<path d="M26.7457 23.6758C26.7457 23.6758 28.4128 20.3416 25.2638 17.9336C28.2276 21.0825 26.3752 23.861 26.3752 23.861H25.8195C25.6343 17.3779 23.9672 20.8973 21.5592 9.41288C24.3377 6.26393 18.9659 3.48545 18.9659 8.67195H17.2989C17.4841 4.22637 13.5942 6.44916 15.817 9.59811C15.6318 16.4517 11.5567 19.2302 11.5567 24.0462C10.26 20.7121 12.668 18.1188 12.668 18.1188C12.668 18.1188 9.33387 20.8973 11.3714 24.9724C13.409 29.0475 17.1136 28.1213 14.5204 29.9737C18.5955 32.7521 24.8934 30.8998 24.7082 24.9724C24.8934 23.4905 28.7833 24.0462 29.1537 24.4167C29.5242 24.7872 28.598 23.6758 26.7457 23.6758ZM16.3727 9.22765C15.0761 8.85718 15.4465 7.19009 16.0022 7.19009C16.5579 7.19009 17.4841 8.48672 16.3727 9.22765ZM19.8921 9.41288C18.9659 8.11625 19.7069 6.81963 20.633 7.00486C21.5592 7.19009 21.5592 9.41288 19.8921 9.41288Z" fill="#EEEEEE"/>
<path d="M11.3731 25.5297L15.263 31.0866C17.3005 32.3833 16.1891 37.5698 10.6322 34.9765C7.48323 34.0503 4.88998 34.2356 4.51951 32.5685C4.14905 30.9014 5.26044 30.7162 5.07521 29.9752C4.33428 25.9001 7.66846 27.9377 8.59462 25.9001C9.52079 23.8626 9.52079 22.9364 11.3731 25.5297ZM32.1191 28.1229C31.3782 27.0115 32.1191 24.974 29.5259 25.1592C28.4145 27.382 25.2655 29.6048 25.0803 25.1592C23.228 25.1592 24.5246 29.6048 23.7837 31.6423C22.1166 36.6436 26.9326 37.0141 28.9702 34.606L33.7862 31.2719C34.1567 30.7162 34.7124 30.1605 32.1191 28.1229ZM15.0778 11.0815C14.5221 9.97014 17.1153 8.48828 18.0415 8.48828C18.9676 8.48828 20.2643 9.22921 21.5609 9.59968C22.8575 9.97014 22.3018 11.2668 21.9314 11.452C21.5609 11.6372 19.5233 13.3043 18.0415 13.3043C16.5596 13.3043 16.1891 11.8225 15.0778 11.0815Z" fill="#FFCC22" stroke="#333333" stroke-width="0.222279"/>
<path d="M15.0771 10.8994C16.559 12.0108 18.2261 12.937 21.5603 10.3438L15.0771 10.8994Z" fill="#FFCC22"/>
<path d="M15.0771 10.8994C16.559 12.0108 18.2261 12.937 21.5603 10.3438" stroke="#333333" stroke-width="0.222279"/>
<path d="M17.1129 9.7854C16.7424 9.7854 17.2981 9.41493 17.4834 9.60016L17.1129 9.7854ZM18.78 9.7854C18.9652 9.60016 18.5948 9.41493 18.2243 9.60016L18.78 9.7854Z" fill="#333333"/>
</svg>
