<svg width="143" height="40" viewBox="0 0 143 40" fill="none" xmlns="http://www.w3.org/2000/svg">
<g clip-path="url(#clip0_1793_59063)">
<path d="M3.86477 16.3771C3.86477 14.1768 2.75033 12.3589 0.666992 10.832H5.50921C6.36281 11.4822 7.05442 12.3211 7.52995 13.2831C8.00548 14.245 8.25203 15.304 8.25033 16.3771C8.25203 17.4502 8.00548 18.5091 7.52995 19.4711C7.05442 20.4331 6.36281 21.272 5.50921 21.9222C7.08144 22.5778 7.97588 24.178 7.97588 26.4682V30.832H3.59144V26.4682C3.59144 24.2869 2.55033 22.76 0.668103 21.9233C2.75144 20.3953 3.86588 18.5784 3.86588 16.3782L3.86477 16.3771ZM13.367 16.3771C13.367 14.1768 12.2525 12.3589 10.1692 10.832H15.0126C15.8659 11.4823 16.5573 12.3213 17.0327 13.2832C17.508 14.2452 17.7544 15.3041 17.7526 16.3771C17.7544 17.4501 17.508 18.509 17.0327 19.4709C16.5573 20.4329 15.8659 21.2718 15.0126 21.9222C16.5837 22.5778 17.4792 24.178 17.4792 26.4682V30.832H13.0937V26.4682C13.0937 24.2869 12.0514 22.76 10.1692 21.9233C12.2525 20.3953 13.367 18.5784 13.367 16.3782V16.3771ZM22.8714 16.3771C22.8714 14.1768 21.757 12.3589 19.6737 10.832H24.5159C25.3695 11.4822 26.0611 12.3211 26.5366 13.2831C27.0121 14.245 27.2587 15.304 27.257 16.3771C27.2587 17.4502 27.0121 18.5091 26.5366 19.4711C26.0611 20.4331 25.3695 21.272 24.5159 21.9222C26.0881 22.5778 26.9826 24.178 26.9826 26.4682V30.832H22.597V26.4682C22.597 24.2869 21.5559 22.76 19.6737 21.9233C21.757 20.3953 22.8714 18.5784 22.8714 16.3782V16.3771ZM40.6137 27.1983H37.2892V14.468H45.4581C49.387 14.468 51.3237 15.9237 51.3237 18.3051C51.3237 19.923 50.3737 21.141 48.6014 21.7599C50.4281 22.0322 51.2503 22.9956 51.2503 24.7236V27.1961H47.8881V24.8691C47.8881 23.4134 47.157 22.8323 45.2381 22.8323H40.6159V27.1983H40.6137ZM45.2737 16.3226H40.6137V20.9787H45.237C46.9181 20.9787 47.9592 20.0508 47.9592 18.5962C47.9592 17.1594 46.9926 16.3226 45.2737 16.3226ZM57.097 14.468H53.7714V27.1983H57.097V14.468ZM67.2937 23.0501H63.237V27.1961H59.9103V14.468H67.3659C71.2948 14.468 73.3603 16.1048 73.3603 18.724C73.3603 21.4321 71.2592 23.0501 67.2937 23.0501ZM67.2203 16.3226H63.237V21.1954H67.1837C68.9015 21.1954 69.9614 20.3231 69.9614 18.7418C69.9614 17.1961 68.9014 16.3226 67.2203 16.3226ZM82.717 23.0501H78.6603V27.1961H75.3337V14.468H82.7892C86.7181 14.468 88.7837 16.1048 88.7837 18.724C88.7837 21.4321 86.6814 23.0501 82.717 23.0501ZM82.6437 16.3226H78.6603V21.1954H82.607C84.3248 21.1954 85.3848 20.3231 85.3848 18.7418C85.3848 17.1961 84.3248 16.3226 82.6437 16.3226ZM94.0826 14.468V25.3048H102.379V27.1983H90.757V14.468H94.0826ZM107.786 14.468H104.46V27.1983H107.786V14.468ZM112.794 18.7229V27.1983H110.6V14.468H113.088L122.151 22.9412V14.468H124.345V27.1983H121.859L112.794 18.7218V18.7229ZM135.2 15.9593C132.038 15.9593 129.974 17.9595 129.974 20.9409C129.974 23.8857 131.947 25.7048 135.017 25.7048H135.236C136.278 25.7048 137.447 25.4859 138.526 25.1414V21.7044H133.154V19.8864H141.778V25.8681C139.988 26.796 137.283 27.5239 135.09 27.5239H134.798C129.754 27.5239 126.501 24.868 126.501 21.0132C126.501 17.195 129.846 14.1413 134.98 14.1413H135.273C137.411 14.1413 139.859 14.8136 141.669 15.8681L140.718 17.4128C139.093 16.5227 137.155 15.9593 135.419 15.9593H135.2Z" fill="black"/>
</g>
<defs>
<clipPath id="clip0_1793_59063">
<rect width="141.667" height="40" fill="white" transform="translate(0.666992)"/>
</clipPath>
</defs>
</svg>
